<svg width="11" height="8" viewBox="0 0 11 8" fill="none" xmlns="http://www.w3.org/2000/svg">
<path d="M5.45478 7.4801L5.45403 7.47904L0.504829 0.547855C0.504749 0.547742 0.50467 0.547629 0.504592 0.547516C0.501269 0.5427 0.500222 0.538521 0.500034 0.535472C0.499844 0.532377 0.500413 0.528544 0.502829 0.524072C0.505324 0.519456 0.510214 0.513515 0.518733 0.508494C0.52724 0.50348 0.538207 0.50014 0.550354 0.500001L10.4496 0.500001L10.4504 0.5C10.4625 0.499982 10.4735 0.503241 10.4819 0.508189C10.4903 0.513074 10.495 0.518837 10.4974 0.523218C10.4996 0.527452 10.5001 0.531011 10.5 0.533831C10.4998 0.536676 10.4988 0.540742 10.4954 0.545507L10.4949 0.546188L5.54448 7.47904L5.54373 7.4801C5.5407 7.48436 5.53554 7.48937 5.52763 7.4934C5.51965 7.49746 5.50986 7.5 5.49925 7.5C5.48865 7.5 5.47885 7.49746 5.47088 7.4934C5.46297 7.48937 5.45781 7.48436 5.45478 7.4801Z" stroke="#7721C1"/>
</svg>
