<svg width="27" height="27" viewBox="0 0 27 27" fill="none" xmlns="http://www.w3.org/2000/svg">
<path d="M0 0.338684H27V1.22842H0V0.338684ZM0.931035 2.11816H26.069V3.0079H0.931035V2.11816ZM4.65517 5.67712H11.1724V6.56685H6.05172C5.79429 6.56685 5.58621 6.76616 5.58621 7.01172V11.4604C5.58621 11.706 5.79429 11.9053 6.05172 11.9053H11.1724V12.795H6.05172C5.79429 12.795 5.58621 12.9943 5.58621 13.2399V17.2437H4.65517V5.67712ZM11.1724 7.45659V11.0155H6.51724V7.45659H11.1724ZM11.1724 13.6848V17.2437H6.51724V13.6848H11.1724ZM0 19.0232V18.1335H11.1724V19.0232H0ZM13.7728 25.6962L13.5 25.9569C13.2509 26.194 12.818 26.194 12.569 25.9569L12.1034 25.5121V3.89764H14.431V25.3359C14.1871 25.404 13.9576 25.5196 13.7728 25.6962ZM17.4969 25.6962L17.2241 25.9569C16.9751 26.194 16.5422 26.194 16.2931 25.9569L16.0203 25.6962C15.8355 25.5196 15.606 25.404 15.3621 25.3359V3.89764H18.1552V25.3359C17.9112 25.404 17.6817 25.5196 17.4969 25.6962ZM21.2211 25.6962L20.9483 25.9569C20.6992 26.194 20.2663 26.194 20.0172 25.9569L19.7444 25.6962C19.5596 25.5196 19.3301 25.404 19.0862 25.3359V3.89764H21.8793V25.3359C21.6354 25.404 21.4059 25.5196 21.2211 25.6962ZM27 18.1335V19.0232H26.069V18.1335H27ZM25.1379 25.5121L24.6724 25.9569C24.4234 26.194 23.9904 26.194 23.7414 25.9569L23.4686 25.6962C23.2838 25.5196 23.0543 25.404 22.8103 25.3359V3.89764H25.1379V25.5121Z" fill="#7721C1" fill-opacity="0.75"/>
<path d="M2.32764 20.8027H10.2414V21.6925H2.32764V20.8027Z" fill="#7721C1" fill-opacity="0.75"/>
<path d="M2.32764 24.3616H10.2414V25.2514H2.32764V24.3616Z" fill="#7721C1" fill-opacity="0.75"/>
<path d="M1.39648 22.5822H8.37924V23.472H1.39648V22.5822Z" fill="#7721C1" fill-opacity="0.75"/>
<path d="M9.31055 22.5822H10.2416V23.472H9.31055V22.5822Z" fill="#7721C1" fill-opacity="0.75"/>
</svg>
