<svg width="26" height="31" viewBox="0 0 26 31" fill="none" xmlns="http://www.w3.org/2000/svg">
<path d="M3.41182 31H22.4706C23.3131 31 24.121 30.6734 24.7167 30.092C25.3125 29.5107 25.6471 28.7222 25.6471 27.9V3.1C25.6471 2.27783 25.3125 1.48933 24.7167 0.907969C24.121 0.326606 23.3131 0 22.4706 0H3.41182C2.56937 0 1.76142 0.326606 1.16572 0.907969C0.570014 1.48933 0.235352 2.27783 0.235352 3.1V27.9C0.235352 28.7222 0.570014 29.5107 1.16572 30.092C1.76142 30.6734 2.56937 31 3.41182 31ZM8.17653 26.35H5.00006V23.25H8.17653V26.35ZM8.17653 20.15H5.00006V17.05H8.17653V20.15ZM8.17653 13.95H5.00006V10.85H8.17653V13.95ZM14.5295 26.35H11.353V23.25H14.5295V26.35ZM14.5295 20.15H11.353V17.05H14.5295V20.15ZM14.5295 13.95H11.353V10.85H14.5295V13.95ZM20.8824 26.35H17.7059V17.05H20.8824V26.35ZM20.8824 13.95H17.7059V10.85H20.8824V13.95ZM3.41182 3.1H22.4706V7.75H3.41182V3.1Z" fill="white"/>
</svg>
