<svg width="25" height="26" viewBox="0 0 25 26" fill="none" xmlns="http://www.w3.org/2000/svg">
<path d="M24.4463 0.633241C24.2708 0.457081 24.0625 0.317322 23.8331 0.221965C23.6037 0.126607 23.3578 0.0775236 23.1094 0.0775236C22.8611 0.0775236 22.6152 0.126607 22.3858 0.221965C22.1564 0.317322 21.948 0.457081 21.7726 0.633241L12.5 9.90646L3.22743 0.614238C3.05187 0.438309 2.84345 0.298755 2.61408 0.203543C2.3847 0.108331 2.13886 0.0593262 1.89058 0.0593262C1.64231 0.0593262 1.39646 0.108331 1.16709 0.203543C0.937711 0.298755 0.729295 0.438309 0.553738 0.614238C0.378181 0.790166 0.238922 0.999024 0.143912 1.22889C0.0489009 1.45875 -1.84979e-09 1.70511 0 1.95391C1.84979e-09 2.20272 0.0489008 2.44908 0.143912 2.67894C0.238922 2.9088 0.378181 3.11766 0.553738 3.29359L9.82631 12.5858L0.553738 21.878C0.378181 22.054 0.238922 22.2628 0.143912 22.4927C0.0489009 22.7225 0 22.9689 0 23.2177C0 23.4665 0.0489009 23.7129 0.143912 23.9427C0.238922 24.1726 0.378181 24.3815 0.553738 24.5574C0.729295 24.7333 0.937711 24.8729 1.16709 24.9681C1.39646 25.0633 1.64231 25.1123 1.89058 25.1123C2.13886 25.1123 2.3847 25.0633 2.61408 24.9681C2.84345 24.8729 3.05187 24.7333 3.22743 24.5574L12.5 15.2652L21.7726 24.5574C21.9481 24.7333 22.1565 24.8729 22.3859 24.9681C22.6153 25.0633 22.8611 25.1123 23.1094 25.1123C23.3577 25.1123 23.6035 25.0633 23.8329 24.9681C24.0623 24.8729 24.2707 24.7333 24.4463 24.5574C24.6218 24.3815 24.7611 24.1726 24.8561 23.9427C24.9511 23.7129 25 23.4665 25 23.2177C25 22.9689 24.9511 22.7225 24.8561 22.4927C24.7611 22.2628 24.6218 22.054 24.4463 21.878L15.1737 12.5858L24.4463 3.29359C25.1668 2.5715 25.1668 1.35534 24.4463 0.633241Z" fill="white"/>
</svg>
