<svg width="13" height="21" viewBox="0 0 13 21" fill="none" xmlns="http://www.w3.org/2000/svg">
<path d="M4.33333 2.01491H0V18.0697H4.33333V20.0766L13 18.0697V2.01491L4.33333 0.00805664V2.01491ZM1.08333 3.01834H4.33333V17.0663H1.08333V3.01834ZM6.2725 10.835C6.09917 10.835 5.94208 10.7514 5.80125 10.5842C5.66042 10.4169 5.59 10.2196 5.59 9.99216C5.59 9.76472 5.66042 9.5657 5.80125 9.39512C5.94208 9.22454 6.09917 9.13925 6.2725 9.13925C6.44583 9.13925 6.60111 9.22287 6.73833 9.3901C6.87556 9.55734 6.94417 9.75803 6.94417 9.99216C6.94417 10.2196 6.87556 10.4169 6.73833 10.5842C6.60111 10.7514 6.44583 10.835 6.2725 10.835Z" fill="#7721C1" fill-opacity="0.75"/>
</svg>
