<svg width="47" height="42" viewBox="0 0 47 42" fill="none" xmlns="http://www.w3.org/2000/svg">
<path d="M20.7088 37.9494L20.7074 37.9481C14.7948 32.6477 9.96869 28.3197 6.60873 24.2587C3.25988 20.211 1.4751 16.5529 1.4751 12.6096C1.4751 6.20506 6.55418 1.16748 13.0606 1.16748C16.7437 1.16748 20.291 2.86733 22.6002 5.54811L23.3579 6.42771L24.1155 5.54811C26.4247 2.86733 29.9721 1.16748 33.6551 1.16748C40.1616 1.16748 45.2407 6.20506 45.2407 12.6096C45.2407 16.5529 43.4559 20.2111 40.1068 24.2617C36.7536 28.3175 31.9404 32.6415 26.0443 37.9385L26.0097 37.9695L26.0076 37.9714L23.3604 40.3357L20.7088 37.9494Z" stroke="#7721C1" stroke-opacity="0.75" stroke-width="2"/>
</svg>
