<svg width="23" height="23" viewBox="0 0 23 23" fill="none" xmlns="http://www.w3.org/2000/svg">
<path d="M22.7019 11.8726L12.3531 0.364239C11.9172 -0.121413 11.0801 -0.121413 10.6443 0.364239L0.295498 11.8726C0.14654 12.0378 0.0487643 12.2428 0.0140607 12.4627C-0.0206429 12.6825 0.00922053 12.9077 0.10002 13.1109C0.284 13.5263 0.695654 13.7933 1.14985 13.7933H3.4496V21.8492C3.4496 22.1544 3.57074 22.4471 3.78639 22.6629C4.00203 22.8788 4.2945 23 4.59947 23H8.04908C8.35405 23 8.64652 22.8788 8.86216 22.6629C9.07781 22.4471 9.19895 22.1544 9.19895 21.8492V17.2458H13.7984V21.8492C13.7984 22.1544 13.9196 22.4471 14.1352 22.6629C14.3509 22.8788 14.6433 23 14.9483 23H18.3979C18.7029 23 18.9954 22.8788 19.211 22.6629C19.4267 22.4471 19.5478 22.1544 19.5478 21.8492V13.7933H21.8475C22.0702 13.7943 22.2884 13.7304 22.4754 13.6094C22.6624 13.4884 22.8102 13.3155 22.9008 13.1119C22.9914 12.9083 23.0208 12.6827 22.9855 12.4626C22.9502 12.2426 22.8516 12.0376 22.7019 11.8726Z" fill="#7721C1" fill-opacity="0.75"/>
</svg>
