<svg width="28" height="28" viewBox="0 0 28 28" fill="none" xmlns="http://www.w3.org/2000/svg">
<path d="M25.7532 18.3787C24.039 18.3787 22.3558 18.1106 20.7607 17.5835C19.9791 17.3169 19.0183 17.5615 18.5413 18.0514L15.393 20.4281C11.7418 18.4791 9.49278 16.2308 7.57041 12.607L9.87712 9.54076C10.4764 8.94226 10.6914 8.06799 10.4338 7.24768C9.90446 5.64425 9.63555 3.96184 9.63555 2.24685C9.63562 1.00792 8.6277 0 7.38885 0H2.24678C1.00792 0 0 1.00792 0 2.24678C0 16.4473 11.5527 27.9999 25.7532 27.9999C26.9921 27.9999 28 26.992 28 25.7532V20.6254C27.9999 19.3867 26.992 18.3787 25.7532 18.3787Z" fill="white"/>
</svg>
