<svg width="13" height="14" viewBox="0 0 13 14" fill="none" xmlns="http://www.w3.org/2000/svg">
<path d="M6.5 0C4.5701 0 3 1.5701 3 3.5C3 5.4299 4.5701 7 6.5 7C8.4299 7 10 5.4299 10 3.5C10 1.5701 8.4299 0 6.5 0Z" fill="#7721C1"/>
<path d="M11.3524 9.64703C10.2846 8.58492 8.86915 8 7.36667 8H5.63333C4.13088 8 2.71538 8.58492 1.64765 9.64703C0.585144 10.7039 0 12.099 0 13.5755C0 13.8099 0.194018 14 0.433333 14H12.5667C12.806 14 13 13.8099 13 13.5755C13 12.099 12.4149 10.7039 11.3524 9.64703Z" fill="#7721C1"/>
</svg>
