<svg width="31" height="31" viewBox="0 0 31 31" fill="none" xmlns="http://www.w3.org/2000/svg">
<path d="M15.4706 0C10.3905 0 6.25757 3.66678 6.25757 8.17383C6.25757 12.6809 10.3905 16.3477 15.4706 16.3477C20.5506 16.3477 24.6836 12.6809 24.6836 8.17383C24.6836 3.66678 20.5506 0 15.4706 0Z" fill="white"/>
<path d="M26.9332 21.6876C24.4109 19.4154 21.0672 18.1641 17.5178 18.1641H13.4232C9.87389 18.1641 6.53005 19.4154 4.00773 21.6876C1.49777 23.9487 0.115479 26.9332 0.115479 30.0918C0.115479 30.5934 0.573808 31 1.13915 31H29.8018C30.3672 31 30.8255 30.5934 30.8255 30.0918C30.8255 26.9332 29.4432 23.9487 26.9332 21.6876Z" fill="white"/>
</svg>
