<svg width="22" height="19" viewBox="0 0 22 19" fill="none" xmlns="http://www.w3.org/2000/svg">
<path d="M2.09521 14.1204H9.42855V2.10657H2.09521V14.1204ZM4.79696 2.81328H7.11275C7.32592 2.81328 7.4987 2.97145 7.4987 3.16661C7.4987 3.36176 7.32592 3.51994 7.11275 3.51994H4.79696C4.58379 3.51994 4.41101 3.36176 4.41101 3.16661C4.41101 2.97145 4.58383 2.81328 4.79696 2.81328ZM2.89801 3.03236C2.91755 2.98955 2.94496 2.95009 2.97906 2.91576C3.12918 2.77721 3.37356 2.7763 3.5249 2.91373C3.52567 2.91439 3.52639 2.9151 3.52712 2.91576C3.56122 2.95009 3.58863 2.98955 3.60817 3.03236C3.61373 3.04446 3.61767 3.05684 3.62165 3.06918C3.67384 3.24056 3.57787 3.42404 3.39328 3.4917C3.31399 3.52077 3.22683 3.52462 3.14537 3.50367C3.1323 3.50007 3.11918 3.49663 3.10643 3.4917C3.08273 3.4833 3.06007 3.47278 3.03877 3.46036C3.02809 3.45414 3.01778 3.44744 3.00778 3.44031C2.99779 3.43319 2.98824 3.42557 2.97906 3.4175C2.97056 3.40893 2.96242 3.40002 2.95477 3.39083C2.93175 3.36325 2.91266 3.33303 2.89801 3.30089C2.87738 3.25812 2.86703 3.21236 2.86703 3.16661C2.86703 3.12085 2.87738 3.0751 2.89801 3.03236Z" fill="#7721C1" fill-opacity="0.75"/>
<path d="M21.2666 0.104309H0.733346C0.328324 0.104309 0 0.416121 0 0.800775V15.4263C0 15.8109 0.328324 16.1227 0.733346 16.1227H15.0333V14.7299H12.8333C12.4283 14.7299 12.1 14.418 12.1 14.0334V2.19367C12.1 1.80901 12.4283 1.4972 12.8333 1.4972H20.1667C20.2558 1.49732 20.3418 1.52826 20.4087 1.58424L20.4417 1.61558C20.4679 1.64333 20.489 1.67512 20.504 1.7096C20.513 1.72993 20.5203 1.7509 20.526 1.77229C20.5303 1.79648 20.5327 1.82089 20.5334 1.84541V14.2214C20.5324 14.4255 20.4373 14.619 20.273 14.7507L19.5397 15.4263L18.7697 16.1227H21.2667C21.6717 16.1227 22 15.8109 22 15.4263V0.800775C22 0.416121 21.6716 0.104309 21.2666 0.104309ZM9.89998 14.0334C9.89998 14.418 9.57166 14.7299 9.16663 14.7299H2.2C1.79497 14.7299 1.46665 14.418 1.46665 14.0334V2.19367C1.46665 1.80901 1.79497 1.4972 2.2 1.4972H9.16663C9.57166 1.4972 9.89998 1.80901 9.89998 2.19367V14.0334Z" fill="#7721C1" fill-opacity="0.75"/>
<path d="M15 7.22448V7.24817V11.6137L16.5682 12.1962C16.791 12.2807 16.8804 12.4835 16.7682 12.65C16.6912 12.7639 16.5348 12.8359 16.3636 12.8363C16.2923 12.8369 16.2219 12.8241 16.1591 12.799L15 12.3689V17.7876C15.001 17.9747 15.2052 18.1257 15.4563 18.125C15.5725 18.1247 15.6841 18.0912 15.7682 18.0315L17.3909 16.9003L18.5 16.1146L20 15.0647V3.79034L15 7.22448ZM19.3818 6.6623H19.3637L16.6364 8.35567C16.5595 8.4033 16.4636 8.43068 16.3637 8.43358C16.2285 8.43374 16.1002 8.38905 16.0137 8.31165C15.853 8.16794 15.879 7.95442 16.0719 7.83468C16.0722 7.83448 16.0725 7.83433 16.0727 7.83413L18.8 6.14075C18.9933 6.02105 19.2803 6.04074 19.4409 6.18477C19.6016 6.3288 19.5751 6.5426 19.3818 6.6623Z" fill="#7721C1" fill-opacity="0.75"/>
</svg>
