<svg width="55" height="42" viewBox="0 0 55 42" fill="none" xmlns="http://www.w3.org/2000/svg">
<path d="M54.5927 22.4965V21.5818C54.5927 20.7141 53.8844 20.0105 53.0109 20.0105H30.0517V1.60009C30.0517 0.779243 29.3789 0.11084 28.5526 0.11084H27.6909C26.8646 0.11084 26.1918 0.779243 26.1918 1.60009V20.0222H1.82786C0.954346 20.0222 0.246094 20.7258 0.246094 21.5935V22.5082C0.246094 23.3759 0.954346 24.0795 1.82786 24.0795H7.57651L2.12296 36.6033H1.16682C1.83966 39.441 5.69964 41.6222 10.3623 41.6222C15.025 41.6222 18.8731 39.441 19.546 36.6033H18.0114L13.1835 24.0678H42.2573L36.8037 36.6033H35.8476C36.5205 39.441 40.3804 41.6222 45.0431 41.6222C49.7058 41.6222 53.5539 39.441 54.2268 36.6033H52.6922L47.8643 24.0678H52.9991C53.8844 24.0678 54.5927 23.3642 54.5927 22.4965ZM16.3234 36.6033H3.83457L9.27632 24.0678H11.4837L16.3234 36.6033ZM51.0042 36.6033H38.5272L43.9807 24.0678H46.1881L51.0042 36.6033Z" fill="#7721C1" fill-opacity="0.75"/>
</svg>
