<svg width="24" height="24" viewBox="0 0 24 24" fill="none" xmlns="http://www.w3.org/2000/svg">
<path d="M22.8948 8.39581L16.0271 7.35061L12.957 0.833023C12.8732 0.654575 12.7352 0.510118 12.5648 0.42231C12.1374 0.201375 11.6181 0.385487 11.4044 0.833023L8.33436 7.35061L1.46663 8.39581C1.27729 8.42413 1.10418 8.5176 0.971637 8.65923C0.811403 8.83169 0.723107 9.06371 0.72615 9.30431C0.729194 9.54491 0.823327 9.7744 0.987866 9.94235L5.95676 15.0154L4.78284 22.1788C4.75531 22.3454 4.77292 22.5168 4.83367 22.6735C4.89442 22.8302 4.99588 22.9659 5.12654 23.0653C5.25721 23.1646 5.41185 23.2237 5.57293 23.2357C5.73402 23.2478 5.8951 23.2123 6.03791 23.1333L12.1807 19.7513L18.3235 23.1333C18.4912 23.2268 18.686 23.2579 18.8726 23.224C19.3433 23.139 19.6598 22.6716 19.5786 22.1788L18.4047 15.0154L23.3736 9.94235C23.5088 9.80356 23.5981 9.62228 23.6251 9.424C23.6982 8.92832 23.3682 8.46945 22.8948 8.39581Z" fill="#B4AEAE"/>
</svg>
