<svg width="26" height="23" viewBox="0 0 26 23" fill="none" xmlns="http://www.w3.org/2000/svg">
<path d="M25.5948 6.46663C25.4799 6.30044 25.3266 6.16461 25.1478 6.07077C24.9691 5.97692 24.7703 5.92786 24.5684 5.92779H7.5043L6.06346 2.46475C5.87454 2.00871 5.55463 1.6191 5.1443 1.34534C4.73396 1.07157 4.25168 0.925975 3.75861 0.927007H0.845703V3.4274H3.75861L9.6818 17.6609C9.77667 17.8886 9.93673 18.0831 10.1418 18.22C10.3469 18.3568 10.5878 18.4298 10.8342 18.4298H20.8228C21.3434 18.4298 21.8091 18.106 21.9927 17.6196L25.7384 7.61806C25.8091 7.42881 25.8331 7.22519 25.8081 7.02466C25.783 6.82412 25.7099 6.63264 25.5948 6.46663Z" fill="white"/>
<path d="M11.7712 22.5481C12.6332 22.5481 13.3319 21.8566 13.3319 21.0037C13.3319 20.1508 12.6332 19.4594 11.7712 19.4594C10.9092 19.4594 10.2104 20.1508 10.2104 21.0037C10.2104 21.8566 10.9092 22.5481 11.7712 22.5481Z" fill="white"/>
<path d="M20.0949 22.5481C20.9569 22.5481 21.6557 21.8566 21.6557 21.0037C21.6557 20.1508 20.9569 19.4594 20.0949 19.4594C19.233 19.4594 18.5342 20.1508 18.5342 21.0037C18.5342 21.8566 19.233 22.5481 20.0949 22.5481Z" fill="white"/>
</svg>
