<svg width="18" height="26" viewBox="0 0 18 26" fill="none" xmlns="http://www.w3.org/2000/svg">
<path d="M9.26389 14.7878V1.3337H12.0647C12.1561 1.3337 12.2437 1.30061 12.3084 1.24172C12.373 1.18282 12.4093 1.10295 12.4093 1.01966C12.4093 0.936375 12.373 0.856499 12.3084 0.797606C12.2437 0.738713 12.1561 0.705627 12.0647 0.705627H5.77383C5.68243 0.705627 5.59477 0.738713 5.53014 0.797606C5.46551 0.856499 5.4292 0.936375 5.4292 1.01966C5.4292 1.10295 5.46551 1.18282 5.53014 1.24172C5.59477 1.30061 5.68243 1.3337 5.77383 1.3337H8.57462V14.7878H9.26389Z" fill="#7721C1" fill-opacity="0.75"/>
<path d="M0 22.9407H17.8381C17.7678 20.7885 16.8182 18.742 15.1825 17.2179C14.363 16.448 13.3875 15.8368 12.3124 15.4197C11.2373 15.0026 10.084 14.7878 8.91903 14.7878C7.75411 14.7878 6.60074 15.0026 5.52563 15.4197C4.45053 15.8368 3.47502 16.448 2.65554 17.2179C1.01985 18.742 0.0702339 20.7885 0 22.9407Z" fill="#7721C1" fill-opacity="0.75"/>
<path d="M10.0826 23.6819H7.75586C7.85807 24.5243 8.34068 25.1642 8.91921 25.1642C9.49775 25.1642 9.98035 24.5243 10.0826 23.6819Z" fill="#7721C1" fill-opacity="0.75"/>
</svg>
