<svg width="292" height="49" viewBox="0 0 292 49" fill="none" xmlns="http://www.w3.org/2000/svg">
<path d="M67.7051 19.9267V21.2945C67.7051 22.5145 67.4837 23.5497 67.041 24.4C66.5982 25.2503 65.9341 25.8788 65.0485 26.3224C64.163 26.766 63.2406 27.0618 62.2075 27.2466C61.1744 27.4315 59.9568 27.5054 58.5178 27.5054C56.5254 27.5054 54.0902 27.3206 51.1754 26.9139V23.106C54.7175 23.6606 57.1527 23.9194 58.5547 23.9194C61.322 23.9194 62.6871 23.217 62.6871 21.7751V20.4442C62.6871 19.8157 62.5027 19.3351 62.1337 18.9285C61.7647 18.5218 61.0637 18.337 59.9568 18.337H57.5954C53.0571 18.337 50.7695 16.5254 50.7695 12.9024V11.3867C50.7695 9.61211 51.5075 8.28121 53.0202 7.4309C54.533 6.5806 56.8944 6.13696 60.2151 6.13696C61.8016 6.13696 63.9785 6.28484 66.672 6.54363V10.2406C63.462 9.8709 61.2482 9.64908 60.0306 9.64908C58.4071 9.64908 57.2633 9.79696 56.673 10.0557C56.0458 10.3145 55.7506 10.7951 55.7506 11.4606V12.9394C55.7506 14.0115 56.673 14.566 58.4809 14.566H60.953C63.3882 14.566 65.0854 15.0097 66.1185 15.897C67.1885 16.8582 67.7051 18.1891 67.7051 19.9267Z" fill="black"/>
<path d="M76.1173 27.2096H71.1362V6.50659H76.1173V27.2096ZM90.6546 27.2096H84.6035L76.228 16.2296L83.9763 6.50659H89.8059L81.947 16.1187L90.6546 27.2096Z" fill="black"/>
<path d="M97.8126 27.2096H92.8315V6.50659H97.8126V27.2096Z" fill="black"/>
<path d="M120.873 12.7545V21.1836C120.873 23.5126 120.135 25.1023 118.696 25.9526C117.257 26.766 114.712 27.2096 111.096 27.2096H102.277V6.50659H111.059C114.564 6.50659 117.073 6.95023 118.586 7.80053C120.135 8.65083 120.873 10.3145 120.873 12.7545ZM115.929 21.1836V12.6805C115.929 11.6823 115.523 10.9799 114.712 10.6102C113.9 10.2405 112.682 10.0187 111.059 10.0187H107.258V23.6605H110.874C112.793 23.6605 114.084 23.5126 114.822 23.2169C115.56 22.9211 115.929 22.2557 115.929 21.1836Z" fill="black"/>
<path d="M129.876 27.2096H124.895V6.50659H129.876V27.2096ZM144.413 27.2096H138.362L129.987 16.2296L137.735 6.50659H143.565L135.743 16.1557L144.413 27.2096Z" fill="black"/>
<path d="M165.592 27.2096H160.574L158.729 21.7381H151.165L149.357 27.2096H144.45L152.088 6.50659H158.139L165.592 27.2096ZM157.622 18.4108L155.003 10.6472H154.892L152.272 18.4478H157.622V18.4108Z" fill="black"/>
<path d="M191.752 27.2096H187.25V11.8672H187.14L181.937 27.2096H177.952L172.565 11.9042H172.455V27.2096H167.917V6.50659H175.001L180.092 21.3314L185.11 6.50659H191.752V27.2096Z" fill="black"/>
<path d="M212.266 27.2096H196.179V6.50659H211.934V10.0557H201.123V14.8248H210.864V18.3739H201.123V23.6975H212.229V27.2096H212.266Z" fill="black"/>
<path d="M233.703 26.1745C232.633 26.5442 231.305 26.877 229.644 27.1357C227.984 27.3945 226.471 27.5054 225.106 27.5054C223.962 27.5054 222.929 27.4685 222.007 27.3576C221.084 27.2466 220.162 27.0988 219.24 26.803C218.317 26.5442 217.542 26.1745 216.915 25.7679C216.288 25.3242 215.771 24.7697 215.402 24.0303C215.033 23.2909 214.812 22.4406 214.812 21.4794V12.9024C214.812 11.8303 215.033 10.8691 215.476 10.0188C215.919 9.20545 216.472 8.53999 217.173 8.05939C217.838 7.57878 218.686 7.20908 219.609 6.87636C220.568 6.5806 221.49 6.35878 222.376 6.28484C223.261 6.17393 224.184 6.13696 225.18 6.13696C228.095 6.13696 230.899 6.35878 233.592 6.80242V10.5733C231.083 9.98181 228.279 9.68605 225.18 9.68605C221.601 9.68605 219.793 10.7212 219.793 12.8285V21.1467C219.793 22.2188 220.31 22.9582 221.306 23.3648C222.302 23.7715 223.741 23.9563 225.623 23.9563C226.656 23.9563 227.763 23.8085 228.98 23.4757V18.6697H225.623V15.4164H233.74V26.1745H233.703Z" fill="black"/>
<path d="M256.69 27.2096H251.672L249.827 21.7381H242.263L240.455 27.2096H235.548L243.185 6.50659H249.237L256.69 27.2096ZM248.72 18.4108L246.1 10.6102H245.99L243.37 18.4108H248.72Z" fill="black"/>
<path d="M260.564 8.50303C262.907 8.50303 264.807 6.59956 264.807 4.25151C264.807 1.90347 262.907 0 260.564 0C258.221 0 256.321 1.90347 256.321 4.25151C256.321 6.59956 258.221 8.50303 260.564 8.50303Z" fill="#7721C1"/>
<path d="M274.068 7.46793C273.22 7.65278 272.445 7.72671 271.67 7.72671C271.375 7.72671 271.08 7.72671 270.821 7.68974C270.563 7.65277 270.268 7.61581 269.936 7.5049C269.604 7.43096 269.308 7.28308 269.087 7.1352C268.866 6.98732 268.644 6.7655 268.497 6.50671C268.349 6.24793 268.275 5.9152 268.275 5.5455V2.32914C268.275 0.850355 269.419 0.110962 271.707 0.110962C272.26 0.110962 273.035 0.184902 274.031 0.36975V1.70066C273.146 1.47884 272.371 1.36793 271.707 1.36793C271.448 1.36793 271.227 1.36793 271.08 1.4049C270.932 1.4049 270.747 1.44187 270.563 1.51581C270.379 1.58975 270.268 1.66369 270.157 1.81157C270.083 1.95944 270.01 2.10732 270.01 2.32914V5.47156C270.01 6.13702 270.637 6.46975 271.854 6.46975C272.408 6.46975 273.109 6.35884 274.068 6.13702V7.46793Z" fill="black"/>
<path d="M282.038 2.329V5.54537C282.038 5.95203 281.927 6.32173 281.706 6.61749C281.484 6.91324 281.189 7.13506 280.82 7.28294C280.451 7.43082 280.082 7.54173 279.713 7.5787C279.344 7.65264 278.939 7.65264 278.533 7.65264C278.127 7.65264 277.758 7.61567 277.426 7.5787C277.094 7.54173 276.725 7.43082 276.319 7.28294C275.913 7.13506 275.618 6.91324 275.397 6.61749C275.175 6.32173 275.064 5.95203 275.064 5.5084V2.329C275.064 1.95931 275.138 1.62658 275.323 1.33082C275.507 1.03506 275.692 0.813246 275.95 0.665367C276.171 0.517488 276.467 0.406579 276.835 0.29567C277.168 0.184761 277.463 0.147791 277.758 0.110822C278.016 0.073852 278.311 0.0738525 278.607 0.0738525C278.902 0.0738525 279.197 0.073852 279.455 0.110822C279.713 0.147791 280.045 0.184761 280.378 0.29567C280.71 0.406579 281.005 0.517488 281.263 0.665367C281.521 0.813246 281.706 1.03506 281.89 1.33082C281.964 1.58961 282.038 1.95931 282.038 2.329ZM280.267 5.54537V2.329C280.267 1.95931 280.119 1.73749 279.824 1.58961C279.529 1.44173 279.086 1.36779 278.533 1.36779C277.942 1.36779 277.537 1.44173 277.241 1.58961C276.946 1.73749 276.799 1.99628 276.799 2.329V5.58233C276.799 5.76718 276.835 5.91506 276.946 6.06294C277.057 6.17385 277.204 6.28476 277.389 6.32173C277.573 6.3587 277.758 6.39567 277.905 6.43264C278.053 6.46961 278.274 6.46961 278.533 6.46961C278.791 6.46961 278.975 6.46961 279.16 6.43264C279.344 6.39567 279.492 6.39567 279.677 6.32173C279.861 6.28476 280.009 6.17385 280.082 6.06294C280.23 5.91506 280.267 5.76718 280.267 5.54537Z" fill="black"/>
<path d="M291.963 7.57875H290.376V2.10724H290.34L288.495 7.57875H287.093L285.174 2.10724H285.137V7.57875H283.514V0.184814H286.023L287.831 5.47148L289.639 0.184814H292V7.57875H291.963Z" fill="black"/>
<path d="M17.3414 28.3927C8.85519 25.657 2.73035 21.997 0 16.7103V44.1049C0 45.3988 0.99621 46.4709 2.2138 46.4709H29.4804C30.3659 44.9552 30.8456 43.2546 30.8456 41.3321C30.8087 35.2321 27.0083 31.757 17.3414 28.3927ZM8.8183 43.1067C6.05105 43.1067 3.83725 40.7406 3.83725 37.783C3.83725 34.8624 6.08795 32.4594 8.8183 32.4594C11.5855 32.4594 13.7993 34.8255 13.7993 37.783C13.7993 40.7406 11.5486 43.1067 8.8183 43.1067Z" fill="#7721C1"/>
<path d="M37.3396 4.39941H9.11371C8.19129 5.8782 7.74854 7.4679 7.74854 8.94669C7.74854 15.0467 12.1023 18.0412 21.9906 21.5164C31.7314 24.9176 37.5979 29.0212 39.5534 35.4909V6.76547C39.5534 5.47154 38.5572 4.39941 37.3396 4.39941ZM30.5876 18.374C27.8203 18.374 25.6065 16.0079 25.6065 13.0503C25.6065 10.1297 27.8572 7.72669 30.5876 7.72669C33.3548 7.72669 35.5686 10.0927 35.5686 13.0503C35.5686 15.9709 33.3179 18.374 30.5876 18.374Z" fill="#7721C1"/>
<path d="M58.7026 46.0635H56.6364V38.189H53.3526V46.0635H51.3232V36.7102H58.7026V46.0635Z" fill="#7721C1"/>
<path d="M60.658 36.711C61.7649 36.6001 62.5397 36.6001 64.2001 36.6001C66.7828 36.6001 67.5945 37.2656 67.5945 39.6686C67.5945 42.0716 66.7828 42.7371 64.4583 42.7371C63.8311 42.7371 63.2408 42.7001 62.6873 42.6262V46.1013H60.6211V36.711H60.658ZM64.1632 41.1104C65.2332 41.1104 65.5283 40.8146 65.5283 39.6316C65.5283 38.4486 65.2332 38.1528 64.1632 38.1528H62.7242V41.0734H64.1632V41.1104Z" fill="#7721C1"/>
<path d="M76.6711 41.406C76.6711 45.1769 75.6011 46.249 72.6494 46.249C69.6977 46.249 68.6646 45.1399 68.6646 41.406C68.6646 37.6721 69.6977 36.563 72.6494 36.563C75.6011 36.563 76.6711 37.6351 76.6711 41.406ZM70.8415 41.406C70.8415 43.883 71.2473 44.5854 72.6494 44.5854C74.0515 44.5854 74.4573 43.883 74.4573 41.406C74.4573 38.929 74.0515 38.2266 72.6494 38.2266C71.2473 38.2266 70.8415 38.929 70.8415 41.406Z" fill="#7721C1"/>
<path d="M84.8254 45.8425C83.9768 46.1013 83.1651 46.2122 81.8368 46.2122C78.9589 46.2122 77.9258 44.9552 77.9258 41.3692C77.9258 37.7831 78.9589 36.5261 81.8368 36.5261C83.1651 36.5261 83.7923 36.637 84.641 36.8219L84.4565 38.3746C83.571 38.3376 83.0175 38.3007 81.8368 38.3007C80.4716 38.3007 80.0658 39.0031 80.0658 41.3322C80.0658 43.6613 80.4716 44.3637 81.8368 44.3637C83.0913 44.3637 83.8292 44.3637 84.641 44.2528L84.8254 45.8425Z" fill="#7721C1"/>
<path d="M90.323 38.4115V46.1012H88.2568V38.4115H85.4526V36.7109H93.0902V38.3746H90.323V38.4115Z" fill="#7721C1"/>
<path d="M101.872 41.406C101.872 45.1769 100.802 46.249 97.8501 46.249C94.8983 46.249 93.8652 45.1399 93.8652 41.406C93.8652 37.6721 94.8983 36.563 97.8501 36.563C100.839 36.563 101.872 37.6351 101.872 41.406ZM96.0421 41.406C96.0421 43.883 96.448 44.5854 97.8501 44.5854C99.2522 44.5854 99.658 43.883 99.658 41.406C99.658 38.929 99.2522 38.2266 97.8501 38.2266C96.448 38.2266 96.0421 38.929 96.0421 41.406Z" fill="#7721C1"/>
<path d="M110.542 38.4115V46.1012H108.476V38.4115H105.672V36.7109H113.309V38.3746H110.542V38.4115Z" fill="#7721C1"/>
<path d="M119.25 43.6612C118.77 45.177 118.217 46.1012 116.889 46.2121C116.261 46.2491 115.228 46.1382 114.638 46.0273L114.859 44.5485C116.52 44.6225 116.778 44.6594 117.147 43.7352L117.258 43.4394H116.741C116.04 43.4394 115.708 43.1067 115.524 42.5152L113.679 36.7109H115.782L117.258 41.6649C117.295 41.7758 117.368 41.8128 117.516 41.8128H117.848L119.471 36.7109H121.575L119.25 43.6612Z" fill="#7721C1"/>
<path d="M126.666 38.4115V46.1012H124.6V38.4115H121.796V36.7109H129.434V38.3746H126.666V38.4115Z" fill="#7721C1"/>
<path d="M140.687 46.0644H134.488L134.341 48.0977H132.865V44.5486H133.861C134.636 42.6632 134.931 40.6668 135.079 38.6335C135.152 37.4504 136.001 36.6741 137.255 36.6741H141.093V44.5486H142.31V48.0977H140.834L140.687 46.0644ZM139.026 38.2268H137.809C137.255 38.2268 137.034 38.4486 136.997 39.0401C136.776 41.591 136.481 43.1068 135.78 44.6226H139.026V38.2268Z" fill="#7721C1"/>
<path d="M149.874 45.9904C148.62 46.1383 146.996 46.1383 145.557 46.1383C144.303 46.1383 143.528 45.3989 143.528 44.2529V38.5595C143.528 37.4135 144.34 36.6741 145.557 36.6741C146.996 36.6741 148.62 36.6741 149.874 36.822L149.8 38.3377H146.184C145.742 38.3377 145.557 38.5226 145.557 39.0401V40.445H149.284V41.9238H145.557V43.7353C145.557 44.2529 145.742 44.4377 146.184 44.4377H149.8L149.874 45.9904Z" fill="#7721C1"/>
<path d="M162.566 46.0643H151.387V36.7109H153.416V44.5855H155.999V36.7109H158.028V44.5855H160.611V36.7109H162.64V46.0643H162.566Z" fill="#7721C1"/>
<path d="M170.794 45.9904C169.54 46.1383 167.917 46.1383 166.478 46.1383C165.223 46.1383 164.448 45.3989 164.448 44.2529V38.5595C164.448 37.4135 165.26 36.6741 166.478 36.6741C167.917 36.6741 169.54 36.6741 170.794 36.822L170.721 38.3377H167.105C166.662 38.3377 166.478 38.5226 166.478 39.0401V40.445H170.204V41.9238H166.478V43.7353C166.478 44.2529 166.662 44.4377 167.105 44.4377H170.721L170.794 45.9904Z" fill="#7721C1"/>
<path d="M177.51 41.2583C178.949 41.3692 179.428 42.2565 179.428 43.7352C179.428 45.6577 178.506 46.1752 176.292 46.1752C174.484 46.1752 173.525 46.1752 172.344 46.0643V36.711C173.414 36.6001 174.3 36.6001 175.849 36.6001C178.285 36.6001 179.133 37.1177 179.133 39.0401C179.133 40.371 178.69 41.0734 177.51 41.1843V41.2583ZM175.849 40.5559C176.846 40.5559 177.141 40.2971 177.141 39.3359C177.141 38.3746 176.809 38.1528 175.739 38.1528H174.337V40.5559H175.849ZM175.923 44.6225C177.067 44.6225 177.399 44.4007 177.399 43.3656C177.399 42.2195 177.03 41.9607 175.886 41.9237H174.374V44.6225H175.923Z" fill="#7721C1"/>
<path d="M192.158 46.0643H180.978V36.7109H183.007V44.5855H185.59V36.7109H187.619V44.5855H190.202V36.7109H192.231V46.0643H192.158Z" fill="#7721C1"/>
<path d="M200.386 45.9904C199.131 46.1383 197.508 46.1383 196.069 46.1383C194.814 46.1383 194.04 45.3989 194.04 44.2529V38.5595C194.04 37.4135 194.851 36.6741 196.069 36.6741C197.508 36.6741 199.131 36.6741 200.386 36.822L200.312 38.3377H196.696C196.253 38.3377 196.069 38.5226 196.069 39.0401V40.445H199.795V41.9238H196.069V43.7353C196.069 44.2529 196.253 44.4377 196.696 44.4377H200.312L200.386 45.9904Z" fill="#7721C1"/>
</svg>
