<svg width="24" height="16" viewBox="0 0 24 16" fill="none" xmlns="http://www.w3.org/2000/svg">
<path d="M6.00012 13.3175H5.36146L5.00404 13.3124L4.59976 13.2971L4.22476 13.2716L3.83805 13.2258L3.50993 13.1546L3.20525 13.0629L3.00018 12.9408V14.417C3.00018 14.6138 3.07244 14.7716 3.21697 14.8904C3.3615 15.0092 3.53923 15.0686 3.75016 15.0686H5.25013C5.46107 15.0686 5.6388 15.0092 5.78333 14.8904C5.92785 14.7716 6.00012 14.6138 6.00012 14.417V13.3175ZM17.9999 13.3175H18.6385L18.9959 13.3124L19.4002 13.2971L19.7752 13.2716L20.1619 13.2258L20.4901 13.1546L20.7947 13.0629L20.9998 12.9408V14.417C20.9998 14.6138 20.9276 14.7716 20.783 14.8904C20.6385 15.0092 20.4608 15.0686 20.2498 15.0686H18.7499C18.5389 15.0686 18.3612 15.0092 18.2167 14.8904C18.0721 14.7716 17.9999 14.6138 17.9999 14.417V13.3175ZM2.26191 4.63316C1.4963 4.63316 0.926002 4.77909 0.551009 5.07094C0.176017 5.36279 -0.00757319 5.76324 0.000239153 6.27228C0.0080515 6.85599 0.150627 7.30055 0.427965 7.60598C0.705303 7.91141 1.06272 8.06412 1.50021 8.06412C1.50021 8.38991 1.50411 8.658 1.51193 8.86841C1.51974 9.07881 1.53536 9.32485 1.5588 9.60652C1.58224 9.88819 1.61935 10.1207 1.67013 10.3039C1.72091 10.4872 1.78927 10.6891 1.8752 10.9097C1.96114 11.1303 2.06856 11.3084 2.19746 11.4442C2.32636 11.5799 2.48456 11.7191 2.67206 11.8616C2.85956 12.0041 3.0744 12.1144 3.31658 12.1925C3.55876 12.2705 3.84196 12.335 4.16617 12.3859C4.49038 12.4368 4.8517 12.4623 5.25013 12.4623H18.7499C19.1483 12.4623 19.5096 12.4368 19.8338 12.3859C20.158 12.335 20.4412 12.2705 20.6834 12.1925C20.9256 12.1144 21.1404 12.0041 21.3279 11.8616C21.5154 11.7191 21.6736 11.5799 21.8025 11.4442C21.9314 11.3084 22.0389 11.1303 22.1248 10.9097C22.2107 10.6891 22.2791 10.4872 22.3299 10.3039C22.3806 10.1207 22.4178 9.88819 22.4412 9.60652C22.4646 9.32485 22.4803 9.07881 22.4881 8.86841C22.4959 8.658 22.4998 8.38991 22.4998 8.06412C22.9373 8.06412 23.2947 7.91141 23.572 7.60598C23.8494 7.30055 23.9919 6.85599 23.9998 6.27228C24.0076 5.76324 23.8279 5.36279 23.4607 5.07094C23.0935 4.77909 22.5271 4.63316 21.7615 4.63316C21.3787 4.63316 21.0193 4.75194 20.6834 4.98949C20.3475 5.22705 20.0565 5.54435 19.8104 5.94141C19.5643 6.33846 19.3553 6.75588 19.1834 7.19365C19.0116 7.63143 18.871 8.08787 18.7616 8.56298C16.6835 7.66028 14.4316 7.20893 12.0059 7.20893C9.58012 7.20893 7.32822 7.66028 5.25013 8.56298C5.14076 8.08109 5.00014 7.62295 4.82827 7.18856C4.6564 6.75418 4.44937 6.33846 4.20719 5.94141C3.965 5.54435 3.67595 5.22705 3.34002 4.98949C3.00408 4.75194 2.64472 4.63316 2.26191 4.63316ZM6.00012 0.733887C5.50013 0.733887 5.06654 0.759339 4.69936 0.810243C4.33218 0.861148 4.01774 0.947685 3.75602 1.06986C3.49431 1.19203 3.27947 1.32777 3.1115 1.47709C2.94354 1.62641 2.80292 1.82324 2.68964 2.06758C2.57636 2.31192 2.49238 2.55626 2.43769 2.80061C2.383 3.04495 2.33222 3.35037 2.28535 3.71688C2.58222 3.75082 2.85565 3.80512 3.10565 3.87978C3.35564 3.95444 3.57048 4.03419 3.75016 4.11903C3.92985 4.20387 4.10367 4.32774 4.27164 4.49063C4.4396 4.65352 4.57241 4.79097 4.67007 4.90296C4.76772 5.01495 4.87905 5.18802 5.00404 5.42218C5.12904 5.65634 5.22084 5.8396 5.27943 5.97195C5.33802 6.1043 5.42786 6.3164 5.54896 6.60825C5.67005 6.90011 5.76184 7.1173 5.82434 7.25983C7.73055 6.6354 9.79106 6.32319 12.0059 6.32319C14.2207 6.32319 16.2812 6.6354 18.1874 7.25983C18.2499 7.12409 18.326 6.94762 18.4159 6.73042C18.5057 6.51323 18.578 6.34185 18.6327 6.21629C18.6874 6.09073 18.7577 5.93632 18.8436 5.75306C18.9295 5.5698 19.0077 5.42218 19.078 5.31019C19.1483 5.1982 19.2381 5.06755 19.3475 4.91823C19.4569 4.76891 19.5643 4.64843 19.6698 4.55681C19.7752 4.46518 19.9002 4.36676 20.0448 4.26156C20.1893 4.15636 20.3436 4.07152 20.5076 4.00704C20.6717 3.94256 20.8572 3.88487 21.0643 3.83396C21.2713 3.78306 21.4959 3.74403 21.7381 3.71688C21.6834 3.2825 21.617 2.92278 21.5389 2.63771C21.4607 2.35265 21.3397 2.07776 21.1756 1.81306C21.0115 1.54836 20.7986 1.34474 20.5369 1.20221C20.2752 1.05967 19.9354 0.945988 19.5174 0.861148C19.0995 0.776307 18.5936 0.733887 17.9999 0.733887H6.00012Z" fill="#7721C1" fill-opacity="0.75"/>
</svg>
