<svg width="14" height="14" viewBox="0 0 14 14" fill="none" xmlns="http://www.w3.org/2000/svg">
<path d="M12.8147 4.58586L8.91062 3.9917L7.16537 0.286622C7.1177 0.185179 7.03928 0.103059 6.94241 0.0531426C6.69946 -0.0724531 6.40423 0.03221 6.28275 0.286622L4.53751 3.9917L0.63339 4.58586C0.525754 4.60196 0.427343 4.6551 0.351998 4.73561C0.26091 4.83365 0.210716 4.96555 0.212446 5.10232C0.214176 5.23909 0.267688 5.36955 0.361224 5.46503L3.18591 8.3489L2.51856 12.4211C2.50291 12.5158 2.51292 12.6133 2.54746 12.7023C2.58199 12.7914 2.63967 12.8686 2.71395 12.9251C2.78823 12.9815 2.87614 13.0151 2.96771 13.022C3.05928 13.0288 3.15085 13.0086 3.23204 12.9637L6.72406 11.0412L10.2161 12.9637C10.3114 13.0169 10.4221 13.0346 10.5282 13.0153C10.7958 12.967 10.9757 12.7013 10.9296 12.4211L10.2622 8.3489L13.0869 5.46503C13.1638 5.38613 13.2145 5.28308 13.2299 5.17036C13.2714 4.88858 13.0838 4.62773 12.8147 4.58586Z" fill="#B4AEAE"/>
</svg>
