<svg width="51" height="51" viewBox="0 0 51 51" fill="none" xmlns="http://www.w3.org/2000/svg">
<path d="M25.5 0C11.4144 0 0 11.4144 0 25.5C0 39.5856 11.4144 51 25.5 51C39.5856 51 51 39.5856 51 25.5C51 11.4144 39.5856 0 25.5 0ZM38.0301 17.4803L33.8449 37.1917C33.5548 38.5974 32.7101 38.9257 31.5339 38.2787L25.1589 33.5676L22.1021 36.5447C21.7451 36.8921 21.4646 37.1822 20.8271 37.1822C20.0016 37.1822 20.1386 36.873 19.8613 36.0857L17.6906 28.9552L11.3857 26.9918C10.0215 26.5742 10.0119 25.6371 11.6949 24.9709L36.2578 15.4881C37.3734 14.9813 38.4604 15.7558 38.0301 17.4803Z" fill="#7721C1" fill-opacity="0.75"/>
</svg>
