<svg width="42" height="33" viewBox="0 0 42 33" fill="none" xmlns="http://www.w3.org/2000/svg">
<path d="M5 28H18V5H5V28ZM9.78946 6.35296H13.8947C14.2726 6.35296 14.5789 6.65579 14.5789 7.02941C14.5789 7.40302 14.2726 7.70585 13.8947 7.70585H9.78946C9.41156 7.70585 9.10527 7.40302 9.10527 7.02941C9.10527 6.65579 9.41164 6.35296 9.78946 6.35296ZM6.42313 6.7724C6.45777 6.69043 6.50636 6.61488 6.56682 6.54917C6.83294 6.28392 7.26616 6.28217 7.53444 6.54528C7.53581 6.54655 7.53709 6.5479 7.53837 6.54917C7.59883 6.61488 7.64742 6.69043 7.68206 6.7724C7.69192 6.79555 7.69889 6.81925 7.70595 6.84288C7.79848 7.17099 7.62834 7.52225 7.30112 7.65179C7.16056 7.70744 7.00605 7.71481 6.86164 7.6747C6.83847 7.6678 6.81522 7.66122 6.79261 7.65179C6.75059 7.63569 6.71042 7.61556 6.67266 7.59177C6.65373 7.57988 6.63545 7.56704 6.61773 7.55341C6.60001 7.53977 6.5831 7.52519 6.56682 7.50973C6.55174 7.49332 6.53731 7.47627 6.52376 7.45867C6.48295 7.40588 6.44911 7.34801 6.42313 7.28649C6.38657 7.2046 6.36821 7.117 6.36821 7.02941C6.36821 6.94181 6.38657 6.85421 6.42313 6.7724Z" fill="#7721C1" fill-opacity="0.75"/>
<path d="M40.5999 0H1.40002C0.6268 0 0 0.642372 0 1.43481V31.5652C0 32.3576 0.6268 33 1.40002 33H28.7V30.1305H24.5C23.7268 30.1305 23.1 29.4881 23.1 28.6957V4.30434C23.1 3.5119 23.7268 2.86953 24.5 2.86953H38.5C38.6701 2.86978 38.8343 2.93351 38.962 3.04885L39.025 3.11342C39.0751 3.17058 39.1154 3.23607 39.144 3.30711C39.1612 3.34898 39.1752 3.39219 39.186 3.43624C39.1941 3.4861 39.1988 3.53637 39.2 3.58689V29.083C39.1983 29.5036 39.0166 29.9021 38.703 30.1734L37.303 31.5652L35.833 33H40.6C41.3732 33 42 32.3576 42 31.5652V1.43481C41.9999 0.642372 41.3731 0 40.5999 0ZM18.9 28.6957C18.9 29.4881 18.2732 30.1305 17.4999 30.1305H4.19999C3.42677 30.1305 2.79997 29.4881 2.79997 28.6957V4.30434C2.79997 3.5119 3.42677 2.86953 4.19999 2.86953H17.4999C18.2732 2.86953 18.9 3.5119 18.9 4.30434V28.6957Z" fill="#7721C1" fill-opacity="0.75"/>
</svg>
