<svg width="220" height="134" viewBox="0 0 220 134" fill="none" xmlns="http://www.w3.org/2000/svg">
<path d="M15.4451 105.059V106.306C15.4451 107.419 15.2432 108.363 14.8394 109.139C14.4356 109.914 13.8299 110.487 13.0223 110.892C12.2147 111.296 11.3735 111.566 10.4313 111.735C9.48914 111.903 8.37871 111.971 7.06638 111.971C5.24931 111.971 3.02845 111.802 0.370146 111.431V107.959C3.60049 108.464 5.82135 108.7 7.10003 108.7C9.62374 108.7 10.8688 108.06 10.8688 106.745V105.531C10.8688 104.958 10.7005 104.52 10.364 104.149C10.0275 103.778 9.38819 103.609 8.3787 103.609H6.22514C2.08626 103.609 0 101.957 0 98.6529V97.2706C0 95.6522 0.67299 94.4384 2.05262 93.663C3.43224 92.8875 5.58581 92.4829 8.61425 92.4829C10.0612 92.4829 12.0465 92.6178 14.5029 92.8538V96.2254C11.5754 95.8882 9.55644 95.6859 8.44601 95.6859C6.96543 95.6859 5.9223 95.8208 5.38391 96.0568C4.81187 96.2928 4.54267 96.7311 4.54267 97.338V98.6867C4.54267 99.6644 5.3839 100.17 7.03273 100.17H9.28724C11.5081 100.17 13.056 100.575 13.9982 101.384C14.974 102.261 15.4451 103.474 15.4451 105.059Z" fill="white"/>
<path d="M23.1171 111.7H18.5745V92.8191H23.1171V111.7ZM36.375 111.7H30.8565L23.2181 101.686L30.2845 92.8191H35.6011L28.4337 101.585L36.375 111.7Z" fill="white"/>
<path d="M42.9029 111.7H38.3602V92.8191H42.9029V111.7Z" fill="white"/>
<path d="M63.9338 98.5171V106.204C63.9338 108.328 63.2608 109.778 61.9485 110.554C60.6361 111.295 58.3143 111.7 55.0167 111.7H46.9745V92.8191H54.983C58.1797 92.8191 60.4679 93.2237 61.8475 93.9992C63.2608 94.7746 63.9338 96.2918 63.9338 98.5171ZM59.4248 106.204V98.4497C59.4248 97.5393 59.0546 96.8987 58.3143 96.5616C57.574 96.2244 56.4636 96.0221 54.983 96.0221H51.5172V108.463H54.8148C56.5646 108.463 57.7423 108.328 58.4153 108.059C59.0883 107.789 59.4248 107.182 59.4248 106.204Z" fill="white"/>
<path d="M72.1444 111.7H67.6017V92.8191H72.1444V111.7ZM85.4022 111.7H79.8837L72.2453 101.686L79.3117 92.8191H84.6283L77.4946 101.619L85.4022 111.7Z" fill="white"/>
<path d="M104.717 111.7H100.141L98.4581 106.71H91.56L89.9112 111.7H85.4358L92.4012 92.8191H97.9197L104.717 111.7ZM97.4486 103.676L95.0595 96.5953H94.9586L92.5695 103.709H97.4486V103.676Z" fill="white"/>
<path d="M128.574 111.7H124.469V97.7079H124.368L119.624 111.7H115.99L111.077 97.7416H110.976V111.7H106.837V92.8191H113.298L117.941 106.339L122.518 92.8191H128.574V111.7Z" fill="white"/>
<path d="M147.283 111.7H132.612V92.8191H146.981V96.0558H137.121V100.405H146.005V103.642H137.121V108.497H147.25V111.7H147.283Z" fill="white"/>
<path d="M166.834 110.756C165.858 111.093 164.647 111.397 163.132 111.633C161.618 111.869 160.239 111.97 158.994 111.97C157.95 111.97 157.008 111.936 156.167 111.835C155.326 111.734 154.485 111.599 153.643 111.329C152.802 111.093 152.095 110.756 151.523 110.385C150.951 109.981 150.48 109.475 150.144 108.801C149.807 108.126 149.605 107.351 149.605 106.474V98.6522C149.605 97.6744 149.807 96.7978 150.211 96.0224C150.615 95.2806 151.12 94.6737 151.759 94.2354C152.365 93.7971 153.139 93.4599 153.98 93.1565C154.855 92.8868 155.696 92.6845 156.503 92.617C157.311 92.5159 158.152 92.4822 159.061 92.4822C161.719 92.4822 164.276 92.6845 166.733 93.0891V96.5281C164.445 95.9886 161.887 95.7189 159.061 95.7189C155.797 95.7189 154.148 96.663 154.148 98.5848V106.171C154.148 107.149 154.619 107.823 155.528 108.194C156.436 108.565 157.749 108.733 159.465 108.733C160.407 108.733 161.416 108.598 162.527 108.295V103.912H159.465V100.945H166.868V110.756H166.834Z" fill="white"/>
<path d="M187.797 111.7H183.221L181.539 106.71H174.64L172.992 111.7H168.516L175.482 92.8191H181L187.797 111.7ZM180.529 103.676L178.14 96.5616H178.039L175.65 103.676H180.529Z" fill="white"/>
<path d="M191.085 94.2537C193.322 94.2537 195.135 92.6053 195.135 90.5719C195.135 88.5385 193.322 86.8901 191.085 86.8901C188.848 86.8901 187.035 88.5385 187.035 90.5719C187.035 92.6053 188.848 94.2537 191.085 94.2537Z" fill="white"/>
<path d="M203.646 93.6961C202.872 93.8646 202.166 93.9321 201.459 93.9321C201.19 93.9321 200.921 93.9321 200.685 93.8984C200.45 93.8646 200.18 93.8309 199.878 93.7298C199.575 93.6623 199.306 93.5275 199.104 93.3926C198.902 93.2578 198.7 93.0555 198.565 92.8194C198.431 92.5834 198.363 92.28 198.363 91.9428V89.0095C198.363 87.6609 199.407 86.9866 201.493 86.9866C201.998 86.9866 202.704 87.054 203.613 87.2226V88.4364C202.805 88.2341 202.098 88.1329 201.493 88.1329C201.257 88.1329 201.055 88.1329 200.921 88.1666C200.786 88.1666 200.618 88.2003 200.45 88.2678C200.281 88.3352 200.18 88.4026 200.08 88.5375C200.012 88.6724 199.945 88.8072 199.945 89.0095V91.8754C199.945 92.4823 200.517 92.7857 201.627 92.7857C202.132 92.7857 202.771 92.6846 203.646 92.4823V93.6961Z" fill="white"/>
<path d="M210.915 89.0098V91.9431C210.915 92.314 210.814 92.6511 210.612 92.9209C210.41 93.1906 210.141 93.3929 209.804 93.5278C209.468 93.6626 209.131 93.7638 208.795 93.7975C208.458 93.8649 208.088 93.8649 207.718 93.8649C207.348 93.8649 207.011 93.8312 206.708 93.7975C206.406 93.7638 206.069 93.6626 205.699 93.5278C205.329 93.3929 205.06 93.1906 204.858 92.9209C204.656 92.6511 204.555 92.314 204.555 91.9094V89.0098C204.555 88.6726 204.622 88.3692 204.79 88.0995C204.959 87.8297 205.127 87.6274 205.363 87.4926C205.564 87.3577 205.834 87.2566 206.17 87.1554C206.473 87.0543 206.742 87.0206 207.011 86.9868C207.247 86.9531 207.516 86.9531 207.785 86.9531C208.054 86.9531 208.324 86.9531 208.559 86.9868C208.795 87.0206 209.098 87.0543 209.4 87.1554C209.703 87.2566 209.972 87.3577 210.208 87.4926C210.444 87.6274 210.612 87.8297 210.78 88.0995C210.847 88.3355 210.915 88.6726 210.915 89.0098ZM209.299 91.9431V89.0098C209.299 88.6726 209.165 88.4703 208.896 88.3355C208.627 88.2006 208.223 88.1332 207.718 88.1332C207.18 88.1332 206.809 88.2006 206.54 88.3355C206.271 88.4703 206.136 88.7064 206.136 89.0098V91.9768C206.136 92.1454 206.17 92.2803 206.271 92.4151C206.372 92.5163 206.507 92.6174 206.675 92.6511C206.843 92.6848 207.011 92.7186 207.146 92.7523C207.281 92.786 207.482 92.786 207.718 92.786C207.954 92.786 208.122 92.786 208.29 92.7523C208.458 92.7186 208.593 92.7186 208.761 92.6511C208.929 92.6174 209.064 92.5163 209.131 92.4151C209.266 92.2803 209.299 92.1454 209.299 91.9431Z" fill="white"/>
<path d="M219.966 93.7976H218.519V88.8077H218.486L216.803 93.7976H215.525L213.775 88.8077H213.741V93.7976H212.261V87.0544H214.549L216.198 91.8758L217.846 87.0544H220V93.7976H219.966Z" fill="white"/>
<path d="M95.5732 39.9846C81.5948 35.4494 71.506 29.382 67.0085 20.6179V66.0315C67.0085 68.1766 68.6495 69.9539 70.6551 69.9539H115.569C117.027 67.4411 117.817 64.6219 117.817 61.435C117.756 51.3227 111.497 45.5617 95.5732 39.9846ZM81.534 64.3768C76.9758 64.3768 73.3292 60.4544 73.3292 55.5515C73.3292 50.7098 77.0366 46.7262 81.534 46.7262C86.0922 46.7262 89.7388 50.6485 89.7388 55.5515C89.7388 60.4544 86.0314 64.3768 81.534 64.3768Z" fill="white"/>
<path d="M128.854 0H81.8023C80.2647 2.45161 79.5266 5.08709 79.5266 7.53869C79.5266 17.6516 86.7843 22.6161 103.268 28.3774C119.505 34.0161 129.285 40.8193 132.544 51.545V3.92257C132.544 1.77742 130.884 0 128.854 0ZM117.599 23.1677C112.986 23.1677 109.295 19.2451 109.295 14.3419C109.295 9.49998 113.047 5.51612 117.599 5.51612C122.211 5.51612 125.902 9.43869 125.902 14.3419C125.902 19.1838 122.15 23.1677 117.599 23.1677Z" fill="white"/>
<path d="M31.6975 131.426H29.8132V124.244H26.8184V131.426H24.9677V122.896H31.6975V131.426Z" fill="white"/>
<path d="M33.4808 122.896C34.4903 122.795 35.1969 122.795 36.7111 122.795C39.0666 122.795 39.8069 123.402 39.8069 125.593C39.8069 127.785 39.0666 128.392 36.9467 128.392C36.3746 128.392 35.8362 128.358 35.3315 128.291V131.46H33.4471V122.896H33.4808ZM36.6775 126.908C37.6533 126.908 37.9225 126.639 37.9225 125.56C37.9225 124.481 37.6533 124.211 36.6775 124.211H35.3652V126.875H36.6775V126.908Z" fill="white"/>
<path d="M48.0849 127.178C48.0849 130.617 47.1091 131.595 44.4171 131.595C41.7251 131.595 40.783 130.584 40.783 127.178C40.783 123.773 41.7251 122.761 44.4171 122.761C47.1091 122.761 48.0849 123.739 48.0849 127.178ZM42.7683 127.178C42.7683 129.437 43.1384 130.078 44.4171 130.078C45.6958 130.078 46.0659 129.437 46.0659 127.178C46.0659 124.919 45.6958 124.279 44.4171 124.279C43.1384 124.279 42.7683 124.919 42.7683 127.178Z" fill="white"/>
<path d="M55.5213 131.224C54.7474 131.46 54.0071 131.561 52.7957 131.561C50.1711 131.561 49.2289 130.415 49.2289 127.144C49.2289 123.874 50.1711 122.728 52.7957 122.728C54.0071 122.728 54.5791 122.829 55.3531 122.997L55.1848 124.413C54.3772 124.38 53.8725 124.346 52.7957 124.346C51.5507 124.346 51.1805 124.987 51.1805 127.111C51.1805 129.235 51.5507 129.875 52.7957 129.875C53.9398 129.875 54.6128 129.875 55.3531 129.774L55.5213 131.224Z" fill="white"/>
<path d="M60.5351 124.447V131.46H58.6507V124.447H56.0934V122.896H63.0588V124.413H60.5351V124.447Z" fill="white"/>
<path d="M71.0673 127.178C71.0673 130.617 70.0915 131.595 67.3995 131.595C64.7076 131.595 63.7654 130.584 63.7654 127.178C63.7654 123.773 64.7076 122.761 67.3995 122.761C70.1251 122.761 71.0673 123.739 71.0673 127.178ZM65.7507 127.178C65.7507 129.437 66.1208 130.078 67.3995 130.078C68.6782 130.078 69.0483 129.437 69.0483 127.178C69.0483 124.919 68.6782 124.279 67.3995 124.279C66.1208 124.279 65.7507 124.919 65.7507 127.178Z" fill="white"/>
<path d="M78.9749 124.447V131.46H77.0906V124.447H74.5332V122.896H81.4986V124.413H78.9749V124.447Z" fill="white"/>
<path d="M86.9162 129.235C86.4787 130.617 85.974 131.46 84.7626 131.561C84.1905 131.595 83.2484 131.494 82.71 131.393L82.9119 130.044C84.4261 130.111 84.6616 130.145 84.9981 129.302L85.0991 129.033H84.628C83.9886 129.033 83.6858 128.729 83.5176 128.19L81.8351 122.896H83.7531L85.0991 127.414C85.1327 127.515 85.2 127.549 85.3346 127.549H85.6375L87.1181 122.896H89.0361L86.9162 129.235Z" fill="white"/>
<path d="M93.6798 124.447V131.46H91.7954V124.447H89.238V122.896H96.2035V124.413H93.6798V124.447Z" fill="white"/>
<path d="M106.466 131.426H100.813L100.679 133.281H99.3328V130.044H100.241C100.948 128.325 101.217 126.504 101.352 124.649C101.419 123.571 102.193 122.863 103.337 122.863H106.837V130.044H107.947V133.281H106.601L106.466 131.426ZM104.952 124.279H103.842C103.337 124.279 103.135 124.481 103.102 125.02C102.9 127.347 102.63 128.729 101.991 130.111H104.952V124.279Z" fill="white"/>
<path d="M114.845 131.359C113.701 131.494 112.221 131.494 110.908 131.494C109.764 131.494 109.057 130.82 109.057 129.774V124.582C109.057 123.537 109.798 122.863 110.908 122.863C112.221 122.863 113.701 122.863 114.845 122.997L114.778 124.38H111.48C111.076 124.38 110.908 124.548 110.908 125.02V126.302H114.307V127.65H110.908V129.302C110.908 129.774 111.076 129.943 111.48 129.943H114.778L114.845 131.359Z" fill="white"/>
<path d="M126.421 131.426H116.225V122.896H118.076V130.078H120.431V122.896H122.282V130.078H124.637V122.896H126.488V131.426H126.421Z" fill="white"/>
<path d="M133.924 131.359C132.78 131.494 131.3 131.494 129.987 131.494C128.843 131.494 128.137 130.82 128.137 129.774V124.582C128.137 123.537 128.877 122.863 129.987 122.863C131.3 122.863 132.78 122.863 133.924 122.997L133.857 124.38H130.559C130.156 124.38 129.987 124.548 129.987 125.02V126.302H133.386V127.65H129.987V129.302C129.987 129.774 130.156 129.943 130.559 129.943H133.857L133.924 131.359Z" fill="white"/>
<path d="M140.049 127.043C141.361 127.144 141.798 127.953 141.798 129.302C141.798 131.055 140.957 131.527 138.938 131.527C137.289 131.527 136.415 131.527 135.338 131.426V122.896C136.314 122.795 137.121 122.795 138.534 122.795C140.755 122.795 141.529 123.267 141.529 125.02C141.529 126.234 141.125 126.875 140.049 126.976V127.043ZM138.534 126.403C139.443 126.403 139.712 126.167 139.712 125.29C139.712 124.413 139.409 124.211 138.434 124.211H137.155V126.403H138.534ZM138.602 130.111C139.645 130.111 139.948 129.909 139.948 128.965C139.948 127.92 139.611 127.684 138.568 127.65H137.188V130.111H138.602Z" fill="white"/>
<path d="M153.407 131.426H143.212V122.896H145.062V130.078H147.418V122.896H149.269V130.078H151.624V122.896H153.475V131.426H153.407Z" fill="white"/>
<path d="M160.911 131.359C159.767 131.494 158.287 131.494 156.974 131.494C155.83 131.494 155.124 130.82 155.124 129.774V124.582C155.124 123.537 155.864 122.863 156.974 122.863C158.287 122.863 159.767 122.863 160.911 122.997L160.844 124.38H157.546C157.143 124.38 156.974 124.548 156.974 125.02V126.302H160.373V127.65H156.974V129.302C156.974 129.774 157.143 129.943 157.546 129.943H160.844L160.911 131.359Z" fill="white"/>
</svg>
