<svg width="116" height="38" viewBox="0 0 116 38" fill="none" xmlns="http://www.w3.org/2000/svg">
<path d="M59.9924 12.1482C59.9262 17.4417 64.6428 20.3956 68.1958 22.152C71.8461 23.9539 73.0723 25.1095 73.0578 26.7211C73.0306 29.1872 70.146 30.2757 67.4468 30.318C62.7374 30.392 59.9992 29.0282 57.8224 27.9967L56.1259 36.0496C58.3099 37.0705 62.3541 37.9609 66.5478 38C76.3919 38 82.8322 33.0705 82.867 25.4276C82.9056 15.7276 69.6412 15.1907 69.7319 10.8551C69.7631 9.54045 70.9997 8.13754 73.7094 7.78084C75.0506 7.60065 78.7531 7.46274 82.9509 9.42369L84.5984 1.63229C82.341 0.798447 79.4396 0 75.8273 0C66.5618 0 60.045 4.99661 59.9924 12.1482ZM100.43 0.67112C98.6322 0.67112 97.1174 1.73479 96.4413 3.36708L82.3795 37.4277H92.2164L94.1739 31.9397H106.194L107.33 37.4277H116L108.434 0.67112H100.43ZM101.806 10.6005L104.645 24.403H96.87L101.806 10.6005ZM48.0657 0.671577L40.3118 37.4273H49.6856L57.4359 0.670658H48.0657V0.671577ZM34.1987 0.670658L24.442 25.6891L20.4953 4.41697C20.0322 2.04232 18.2034 0.67112 16.1725 0.67112H0.223391L0 1.73847C3.27428 2.45923 6.99444 3.62174 9.24828 4.86561C10.6276 5.62544 11.0209 6.28967 11.474 8.09525L18.9492 37.4277H28.855L44.0419 0.67112H34.1987" fill="url(#paint0_linear_857_5)"/>
<defs>
<linearGradient id="paint0_linear_857_5" x1="53.3298" y1="38.7623" x2="54.4456" y2="-0.263375" gradientUnits="userSpaceOnUse">
<stop stop-color="#222357"/>
<stop offset="1" stop-color="#254AA5"/>
</linearGradient>
</defs>
</svg>
