<svg width="23" height="17" viewBox="0 0 23 17" fill="none" xmlns="http://www.w3.org/2000/svg">
<path d="M0.131917 0.607552C0.0342448 0.7906 -0.0106452 0.996538 0.00212809 1.20298C0.0149014 1.40941 0.0848491 1.60845 0.204366 1.77844L10.5542 16.5138C10.6605 16.6639 10.802 16.7865 10.9666 16.8711C11.1313 16.9558 11.3143 17 11.5 17C11.6858 17 11.8687 16.9558 12.0334 16.8711C12.1981 16.7865 12.3396 16.6639 12.4459 16.5138L22.7957 1.77844C22.9151 1.60839 22.985 1.40939 22.9978 1.20299C23.0107 0.996585 22.966 0.790645 22.8687 0.60747C22.7713 0.424294 22.625 0.270863 22.4455 0.163787C22.266 0.0567121 22.0602 7.1515e-05 21.8504 2.85959e-06L1.1508 3.76439e-06C0.940884 -3.05587e-05 0.734965 0.0565681 0.55536 0.163666C0.375756 0.270761 0.229317 0.424269 0.131917 0.607552ZM19.6551 2.26697L11.5006 13.8773L3.34611 2.26698L19.6551 2.26697Z" fill="white"/>
</svg>
