<svg width="24" height="21" viewBox="0 0 24 21" fill="none" xmlns="http://www.w3.org/2000/svg">
<path d="M23.7858 5.3805C23.6754 5.21909 23.528 5.08716 23.3562 4.99601C23.1844 4.90486 22.9934 4.85721 22.7994 4.85715H6.39943L5.01467 1.49358C4.8331 1.05063 4.52564 0.672219 4.13128 0.406318C3.73692 0.140417 3.27341 -0.000996977 2.79953 5.29093e-06H0V2.42858H2.79953L8.49218 16.2532C8.58336 16.4744 8.73718 16.6633 8.93427 16.7962C9.13136 16.9291 9.36291 17 9.59975 17H19.1995C19.6999 17 20.1475 16.6855 20.3239 16.2131L23.9238 6.49886C23.9918 6.31504 24.0148 6.11727 23.9908 5.9225C23.9667 5.72772 23.8964 5.54175 23.7858 5.3805Z" fill="#7721C1"/>
<path d="M10.5 21C11.3284 21 12 20.3284 12 19.5C12 18.6716 11.3284 18 10.5 18C9.67157 18 9 18.6716 9 19.5C9 20.3284 9.67157 21 10.5 21Z" fill="#7721C1"/>
<path d="M18.5 21C19.3284 21 20 20.3284 20 19.5C20 18.6716 19.3284 18 18.5 18C17.6716 18 17 18.6716 17 19.5C17 20.3284 17.6716 21 18.5 21Z" fill="#7721C1"/>
</svg>
