<svg width="19" height="22" viewBox="0 0 19 22" fill="none" xmlns="http://www.w3.org/2000/svg">
<path d="M18.4541 18.8151C18.4333 18.8249 17.2819 19.3514 15.4871 19.8306C15.363 18.8639 15.0359 17.945 14.4764 17.1454C15.7105 16.9423 15.1372 17.0238 15.874 16.8789L15.2607 14.4897C15.0207 14.5368 14.4178 14.6552 14.3005 14.6766V11.3226C14.3005 9.62451 12.882 8.24287 11.1386 8.24287H5.44736V7.13955C5.44736 4.70436 3.9914 2.21356 1.43766 1.0914L0.799099 0.810486L0 3.14795L0.500201 3.38373C2.06252 4.11946 2.9179 5.68818 2.9179 7.13955V13.6398C2.9179 14.8435 3.52308 15.927 4.45535 16.6071C3.73576 17.4265 3.2625 18.4149 3.05744 19.4748C1.97058 19.1229 1.30904 18.8225 1.2931 18.8151L0.747793 19.9267C0.915201 20.0043 4.89775 21.8347 9.87392 21.8347C14.8501 21.8347 18.8326 20.0043 19 19.9267L18.4541 18.8151ZM11.1386 9.47475C12.1847 9.47475 13.0357 10.3036 13.0357 11.3226V14.8604C11.9238 14.9862 10.7464 15.0521 9.88564 15.0521C8.89755 15.0521 7.36233 14.9811 6.50337 14.8626C5.90127 14.7796 5.44736 14.2539 5.44736 13.6398V9.47475H11.1386ZM4.27171 19.8321C4.43613 18.8325 4.91116 17.9114 5.63703 17.1833C5.80461 17.2311 5.97273 17.278 6.1495 17.3024C7.15858 17.4407 8.82718 17.5153 9.88441 17.5153C10.7636 17.5153 11.892 17.4547 13.0043 17.3411C13.7206 18.1235 14.1491 19.0853 14.2521 20.1246C12.9667 20.396 11.4719 20.6028 9.87392 20.6028C7.7399 20.6028 5.78091 20.2343 4.27171 19.8321Z" fill="#7721C1" fill-opacity="0.75"/>
</svg>
