<svg width="45" height="32" viewBox="0 0 45 32" fill="none" xmlns="http://www.w3.org/2000/svg">
<path d="M44.1764 16.9076V16.2167C44.1764 15.5613 43.6107 15.0299 42.9129 15.0299H24.5732V1.12481C24.5732 0.504836 24.0358 0 23.3757 0H22.6874C22.0274 0 21.4899 0.504836 21.4899 1.12481V15.0388H2.02815C1.3304 15.0388 0.764648 15.5702 0.764648 16.2256V16.9164C0.764648 17.5718 1.3304 18.1032 2.02815 18.1032H6.62014L2.26388 27.5622H1.50012C2.03758 29.7056 5.12091 31.3529 8.84542 31.3529C12.5699 31.3529 15.6438 29.7056 16.1813 27.5622H14.9555L11.099 18.0944H34.323L29.9667 27.5622H29.2029C29.7404 29.7056 32.8237 31.3529 36.5482 31.3529C40.2727 31.3529 43.3467 29.7056 43.8841 27.5622H42.6583L38.8018 18.0944H42.9035C43.6107 18.0944 44.1764 17.563 44.1764 16.9076ZM13.6071 27.5622H3.63111L7.97794 18.0944H9.74119L13.6071 27.5622ZM41.31 27.5622H31.3434L35.6996 18.0944H37.4629L41.31 27.5622Z" fill="white"/>
</svg>
