<svg width="31" height="26" viewBox="0 0 31 26" fill="none" xmlns="http://www.w3.org/2000/svg">
<path d="M28.8321 6.17018L16.7525 0.286518C16.3626 0.0980103 15.9342 0 15.5 0C15.0658 0 14.6374 0.0980103 14.2475 0.286518L2.16793 6.17018C1.51748 6.48129 0.96911 6.96678 0.585678 7.57101C0.202245 8.17523 -0.000735527 8.87374 2.00272e-06 9.58646V22.1799C2.00272e-06 24.2864 1.75897 26 3.92136 26H27.0786C29.241 26 31 24.2864 31 22.1799V9.58646C31.0007 8.87374 30.7978 8.17523 30.4143 7.57101C30.0309 6.96678 29.4825 6.48129 28.8321 6.17018V6.17018ZM15.2495 2.23887C15.3275 2.20117 15.4132 2.18157 15.5 2.18157C15.5868 2.18157 15.6725 2.20117 15.7505 2.23887L27.471 7.94585L15.5692 13.7442C15.4912 13.7819 15.4055 13.8015 15.3187 13.8015C15.2319 13.8015 15.1462 13.7819 15.0682 13.7442L3.34565 8.03658L15.2495 2.23887Z" fill="white"/>
</svg>
