<svg width="24" height="24" viewBox="0 0 24 24" fill="none" xmlns="http://www.w3.org/2000/svg">
<path d="M19.7344 3.82384L17.2805 0.592712H14.8125V8.07362H19.7344V3.82384Z" fill="#7721C1" fill-opacity="0.75"/>
<path d="M7.07812 9.41754V15.465H17.6719C21.1612 15.465 24 13.424 24 10.0895V9.41754H7.07812Z" fill="#7721C1" fill-opacity="0.75"/>
<path d="M5.67188 15.465V10.7614H0V11.4334C0 14.027 2.20781 15.465 4.92188 15.465H5.67188Z" fill="#7721C1" fill-opacity="0.75"/>
<path d="M15.5156 18.8247C15.5156 17.7133 16.462 16.8088 17.625 16.8088H7.78125C8.94422 16.8088 9.89062 17.7133 9.89062 18.8247C9.89062 19.936 8.94422 20.8405 7.78125 20.8405H4.26562V23.5282H21.1406V20.8405H17.625C16.462 20.8405 15.5156 19.936 15.5156 18.8247Z" fill="#7721C1" fill-opacity="0.75"/>
<path d="M11.2969 3.37006H13.4062V6.72975H11.2969V3.37006Z" fill="#7721C1" fill-opacity="0.75"/>
<path d="M0 3.37006H9.89062V6.72975H0V3.37006Z" fill="#7721C1" fill-opacity="0.75"/>
</svg>
