<svg width="30" height="43" viewBox="0 0 30 43" fill="none" xmlns="http://www.w3.org/2000/svg">
<path d="M15.4937 24V1.07041H19.5063C19.6372 1.07041 19.7628 1.01402 19.8554 0.913648C19.948 0.813278 20 0.677147 20 0.535203C20 0.393258 19.948 0.257127 19.8554 0.156757C19.7628 0.0563872 19.6372 2.99126e-09 19.5063 0H10.4937C10.3628 2.99126e-09 10.2372 0.0563872 10.1446 0.156757C10.052 0.257127 10 0.393258 10 0.535203C10 0.677147 10.052 0.813278 10.1446 0.913648C10.2372 1.01402 10.3628 1.07041 10.4937 1.07041H14.5063V24H15.4937Z" fill="#7721C1" fill-opacity="0.75"/>
<path d="M0 39H30C29.8818 35.3042 28.2848 31.7901 25.5339 29.1729C24.1557 27.8508 22.5151 26.8013 20.707 26.0851C18.8989 25.3688 16.9592 25 15 25C13.0408 25 11.1011 25.3688 9.29299 26.0851C7.48488 26.8013 5.84428 27.8508 4.46608 29.1729C1.71517 31.7901 0.118119 35.3042 0 39Z" fill="#7721C1" fill-opacity="0.75"/>
<path d="M18 40H13C13.2197 41.7048 14.2568 43 15.5 43C16.7432 43 17.7803 41.7048 18 40Z" fill="#7721C1" fill-opacity="0.75"/>
</svg>
