<svg width="75" height="58" viewBox="0 0 75 58" fill="none" xmlns="http://www.w3.org/2000/svg">
<path d="M13.6347 57.7117V53.8729C13.6347 52.401 12.7341 51.4416 11.1904 51.4416C10.4187 51.4416 9.58262 51.6975 9.00371 52.5293C8.55371 51.8254 7.91064 51.4416 6.9459 51.4416C6.30254 51.4416 5.65977 51.6333 5.14502 52.3372V51.5695H3.79443V57.7117H5.14502V54.3206C5.14502 53.2332 5.72393 52.7211 6.62451 52.7211C7.52451 52.7211 7.9751 53.297 7.9751 54.3206V57.7117H9.32568V54.3206C9.32568 53.2332 9.96846 52.7211 10.8046 52.7211C11.7052 52.7211 12.1552 53.297 12.1552 54.3206V57.7117H13.6347ZM33.6359 51.5695H31.4495V49.7141H30.0989V51.5695H28.877V52.7849H30.0986V55.6004C30.0986 57.0081 30.6775 57.8396 32.2212 57.8396C32.8001 57.8396 33.4429 57.6479 33.8935 57.392L33.5073 56.2401C33.1215 56.496 32.6715 56.5601 32.3498 56.5601C31.7067 56.5601 31.4495 56.1763 31.4495 55.5363V52.7849H33.6359V51.5695ZM45.084 51.4413C44.3123 51.4413 43.7979 51.8254 43.4762 52.3372V51.5695H42.1256V57.7117H43.4762V54.2568C43.4762 53.2332 43.9262 52.6572 44.7623 52.6572C45.0195 52.6572 45.3412 52.7214 45.5984 52.7852L45.9843 51.5057C45.7271 51.4416 45.3412 51.4416 45.084 51.4416V51.4413ZM27.7836 52.0813C27.1402 51.6333 26.2399 51.4416 25.2752 51.4416C23.7318 51.4416 22.7029 52.2093 22.7029 53.4249C22.7029 54.4488 23.4746 55.0245 24.8252 55.2165L25.4683 55.2806C26.1758 55.4083 26.5616 55.6004 26.5616 55.9204C26.5616 56.3681 26.0472 56.6881 25.1466 56.6881C24.2463 56.6881 23.5388 56.3681 23.0885 56.0483L22.4454 57.0719C23.1529 57.5837 24.1177 57.8396 25.0821 57.8396C26.883 57.8396 27.9122 57.0081 27.9122 55.8563C27.9122 54.7686 27.0761 54.1926 25.7896 54.0009L25.1466 53.9367C24.5677 53.8726 24.1177 53.745 24.1177 53.3611C24.1177 52.9131 24.5677 52.6572 25.2752 52.6572C26.0472 52.6572 26.8188 52.977 27.2047 53.169L27.7836 52.0813ZM63.6708 51.4416C62.8988 51.4416 62.3844 51.8254 62.0627 52.3372V51.5695H60.7121V57.7117H62.0627V54.2568C62.0627 53.2332 62.513 52.6572 63.3488 52.6572C63.6063 52.6572 63.928 52.7214 64.1853 52.7852L64.5711 51.5057C64.3139 51.4416 63.928 51.4416 63.6708 51.4416ZM46.4346 54.6406C46.4346 56.496 47.7207 57.8396 49.7146 57.8396C50.6149 57.8396 51.258 57.6479 51.9011 57.1361L51.258 56.0483C50.7436 56.4322 50.2291 56.624 49.6502 56.624C48.5568 56.624 47.7852 55.8563 47.7852 54.6406C47.7852 53.4891 48.5568 52.7211 49.6502 52.6572C50.2291 52.6572 50.7436 52.849 51.258 53.2332L51.9011 52.1454C51.258 51.6333 50.6149 51.4416 49.7146 51.4416C47.7207 51.4416 46.4346 52.7852 46.4346 54.6406ZM58.9115 54.6406V51.5695H57.5609V52.3372C57.1106 51.7616 56.4676 51.4416 55.6314 51.4416C53.895 51.4416 52.5444 52.7852 52.5444 54.6406C52.5444 56.496 53.895 57.8396 55.6314 57.8396C56.5317 57.8396 57.1751 57.5199 57.5609 56.944V57.7117H58.9115V54.6406ZM53.9592 54.6406C53.9592 53.5529 54.6667 52.6572 55.8242 52.6572C56.9176 52.6572 57.6896 53.4891 57.6896 54.6406C57.6896 55.7283 56.9176 56.624 55.8242 56.624C54.6667 56.5599 53.9592 55.7283 53.9592 54.6406ZM37.8166 51.4416C36.0157 51.4416 34.7293 52.7211 34.7293 54.6406C34.7293 56.5601 36.0154 57.8396 37.8808 57.8396C38.7811 57.8396 39.6816 57.5837 40.3892 57.0081L39.7458 56.0483C39.2313 56.4322 38.5883 56.6881 37.9452 56.6881C37.1091 56.6881 36.2729 56.3042 36.0799 55.2162H40.6464V54.7047C40.7108 52.7211 39.553 51.4416 37.8163 51.4416H37.8166ZM37.8166 52.5931C38.6524 52.5931 39.2316 53.1052 39.36 54.065H36.1443C36.2729 53.2332 36.8519 52.5931 37.8166 52.5931ZM71.324 54.6406V49.1382H69.9734V52.3372C69.5231 51.7616 68.8801 51.4416 68.0439 51.4416C66.3075 51.4416 64.9569 52.7852 64.9569 54.6406C64.9569 56.496 66.3075 57.8396 68.0439 57.8396C68.9445 57.8396 69.5876 57.5199 69.9734 56.944V57.7117H71.324V54.6406ZM66.372 54.6406C66.372 53.5529 67.0792 52.6572 68.237 52.6572C69.3304 52.6572 70.1021 53.4891 70.1021 54.6406C70.1021 55.7283 69.3304 56.624 68.237 56.624C67.0792 56.5599 66.372 55.7283 66.372 54.6406ZM21.2234 54.6406V51.5695H19.8729V52.3372C19.4226 51.7616 18.7795 51.4416 17.9434 51.4416C16.2069 51.4416 14.8563 52.7852 14.8563 54.6406C14.8563 56.496 16.2069 57.8396 17.9434 57.8396C18.8439 57.8396 19.487 57.5199 19.8729 56.944V57.7117H21.2234V54.6406ZM16.2069 54.6406C16.2069 53.5529 16.9145 52.6572 18.072 52.6572C19.1653 52.6572 19.9373 53.4891 19.9373 54.6406C19.9373 55.7283 19.1653 56.624 18.072 56.624C16.9145 56.5599 16.2069 55.7283 16.2069 54.6406Z" fill="black"/>
<path d="M27.3335 4.92627H47.5923V41.1401H27.3335V4.92627Z" fill="#FF5F00"/>
<path d="M28.6198 23.0336C28.6198 15.6757 32.0927 9.14943 37.4306 4.9265C33.5077 1.85542 28.5557 0 23.1533 0C10.3544 0 0 10.301 0 23.0336C0 35.7659 10.3544 46.0672 23.153 46.0672C28.5554 46.0672 33.5074 44.2117 37.4306 41.1404C32.0927 36.9816 28.6198 30.3914 28.6198 23.0336Z" fill="#EB001B"/>
<path d="M74.9257 23.0336C74.9257 35.7659 64.5713 46.0672 51.7727 46.0672C46.3703 46.0672 41.4183 44.2117 37.4951 41.1404C42.8975 36.9177 46.3062 30.3914 46.3062 23.0336C46.3062 15.6757 42.833 9.14943 37.4951 4.9265C41.418 1.85542 46.3703 0 51.7727 0C64.5713 0 74.926 10.3651 74.926 23.0336H74.9257Z" fill="#F79E1B"/>
</svg>
