<svg width="32" height="31" viewBox="0 0 32 31" fill="none" xmlns="http://www.w3.org/2000/svg">
<path d="M29.4323 20.3479C27.4731 20.3479 25.5494 20.0511 23.7265 19.4675C22.8333 19.1724 21.7352 19.4431 21.19 19.9856L17.592 22.6168C13.4192 20.459 10.8489 17.9698 8.65189 13.9578L11.2881 10.563C11.9731 9.90038 12.2187 8.93244 11.9244 8.02424C11.3194 6.249 11.0121 4.38634 11.0121 2.48759C11.0121 1.11592 9.86022 0 8.44439 0H2.56774C1.15191 0 0 1.11592 0 2.48751C0 18.2095 13.2031 31 29.4323 31C30.8481 31 32 29.8841 32 28.5125V22.8354C31.9999 21.4639 30.848 20.3479 29.4323 20.3479Z" fill="#7721C1" fill-opacity="0.75"/>
</svg>
