<svg width="37" height="34" viewBox="0 0 37 34" fill="none" xmlns="http://www.w3.org/2000/svg">
<path d="M18.8831 15.0041C18.5911 13.244 17.7432 11.6082 16.4502 10.3109C14.6602 8.50059 12.1552 7.47284 9.53252 7.47284C6.90988 7.47284 4.4048 8.50059 2.61484 10.3109C1.32189 11.6082 0.473927 13.244 0.181996 15.0041C0.10176 15.1616 0.0596881 15.334 0.0588379 15.5088V17.8947C0.0588379 18.5536 0.624373 19.0877 1.322 19.0877H2.39568C1.80623 17.5458 1.80623 15.8577 2.39568 14.3158H1.63779C1.99081 13.1235 2.6434 12.0294 3.5401 11.1263C5.09124 9.55692 7.26248 8.66588 9.53568 8.66588C11.8089 8.66588 13.9801 9.55692 15.5313 11.1263C16.4268 12.0297 17.0783 13.1238 17.4304 14.3158H16.6694C17.2588 15.8577 17.2588 17.5458 16.6694 19.0877H17.7431C18.4407 19.0877 19.0062 18.5536 19.0062 17.8947V15.5088C19.0054 15.334 18.9633 15.1616 18.8831 15.0041V15.0041Z" fill="white"/>
<path d="M3.2168 16.7017C3.21595 14.3567 4.67001 12.2288 6.93285 11.2636C9.19569 10.2983 11.8474 10.6748 13.7098 12.2257C15.5721 13.7767 16.2994 16.2143 15.5686 18.4554C14.3926 18.8174 13.1677 19.0183 11.9313 19.0519C11.6535 18.3573 10.9504 17.8968 10.1642 17.8947H8.90101C7.85458 17.8947 7.00628 18.6959 7.00628 19.6842C7.00628 20.6725 7.85458 21.4737 8.90101 21.4737H10.1642C10.9782 21.4713 11.6991 20.9769 11.9534 20.2467C12.9327 20.2096 13.9065 20.0898 14.8631 19.8888C13.3633 22.1349 10.4709 23.1727 7.77032 22.4337C5.06977 21.6946 3.21284 19.3572 3.2168 16.7017V16.7017Z" fill="white"/>
<path d="M10.7958 19.6842C10.7958 20.0136 10.5131 20.2807 10.1643 20.2807H8.90111C8.5523 20.2807 8.26953 20.0136 8.26953 19.6842C8.26953 19.3548 8.5523 19.0877 8.90111 19.0877H10.1643C10.5131 19.0877 10.7958 19.3548 10.7958 19.6842Z" fill="white"/>
<path d="M15.7814 24.5206C17.4475 26.0801 18.3817 28.2056 18.3746 30.4211V33.4035C18.3746 33.7329 18.0919 34 17.7431 34H14.5852V30.4211C14.5852 30.0916 14.3024 29.8246 13.9536 29.8246C13.6048 29.8246 13.322 30.0916 13.322 30.4211V34H5.74306V30.4211C5.74306 30.0916 5.46029 29.8246 5.11148 29.8246C4.76267 29.8246 4.4799 30.0916 4.4799 30.4211V34H1.32201C0.973197 34 0.69043 33.7329 0.69043 33.4035V30.4211C0.693337 27.2012 2.65604 24.2697 5.73485 22.8868C8.07975 24.183 10.9828 24.183 13.3277 22.8868C14.2402 23.2921 15.0706 23.845 15.7814 24.5206Z" fill="white"/>
<path d="M23.4275 5.96489C23.7763 5.96489 24.0591 5.69784 24.0591 5.3684C24.0591 5.03897 23.7763 4.77191 23.4275 4.77191C23.0787 4.77191 22.7959 5.03897 22.7959 5.3684C22.7959 5.69784 23.0787 5.96489 23.4275 5.96489Z" fill="white"/>
<path d="M32.2693 5.96489C32.6181 5.96489 32.9009 5.69784 32.9009 5.3684C32.9009 5.03897 32.6181 4.77191 32.2693 4.77191C31.9205 4.77191 31.6377 5.03897 31.6377 5.3684C31.6377 5.69784 31.9205 5.96489 32.2693 5.96489Z" fill="white"/>
<path d="M27.8484 5.96489C28.1972 5.96489 28.48 5.69784 28.48 5.3684C28.48 5.03897 28.1972 4.77191 27.8484 4.77191C27.4996 4.77191 27.2168 5.03897 27.2168 5.3684C27.2168 5.69784 27.4996 5.96489 27.8484 5.96489Z" fill="white"/>
<path d="M34.164 0H21.5324C20.486 0 19.6377 0.801175 19.6377 1.78947V8.94737C19.6377 9.93567 20.486 10.7368 21.5324 10.7368H22.6377L22.164 14.3158L26.4966 10.7368H34.164C35.2104 10.7368 36.0587 9.93567 36.0587 8.94737V1.78947C36.0587 0.801175 35.2104 0 34.164 0ZM23.4272 7.15789C22.3807 7.15789 21.5324 6.35672 21.5324 5.36842C21.5324 4.38012 22.3807 3.57895 23.4272 3.57895C24.4736 3.57895 25.3219 4.38012 25.3219 5.36842C25.3219 5.84302 25.1223 6.29818 24.7669 6.63377C24.4116 6.96936 23.9297 7.15789 23.4272 7.15789ZM27.8482 7.15789C26.8018 7.15789 25.9535 6.35672 25.9535 5.36842C25.9535 4.38012 26.8018 3.57895 27.8482 3.57895C28.8947 3.57895 29.743 4.38012 29.743 5.36842C29.743 5.84302 29.5433 6.29818 29.188 6.63377C28.8327 6.96936 28.3507 7.15789 27.8482 7.15789ZM32.2693 7.15789C31.2228 7.15789 30.3745 6.35672 30.3745 5.36842C30.3745 4.38012 31.2228 3.57895 32.2693 3.57895C33.3157 3.57895 34.164 4.38012 34.164 5.36842C34.164 5.84302 33.9644 6.29818 33.6091 6.63377C33.2537 6.96936 32.7718 7.15789 32.2693 7.15789Z" fill="white"/>
<path d="M34.164 20.8772H28.3914L24.0588 17.2983L24.5325 20.8772H23.4272C22.3808 20.8772 21.5325 21.6784 21.5325 22.6667V28.0351C21.5325 29.0234 22.3808 29.8246 23.4272 29.8246H34.164C35.2105 29.8246 36.0588 29.0234 36.0588 28.0351V22.6667C36.0588 21.6784 35.2105 20.8772 34.164 20.8772ZM24.0588 23.2632H25.9535C26.3023 23.2632 26.5851 23.5302 26.5851 23.8597C26.5851 24.1891 26.3023 24.4562 25.9535 24.4562H24.0588C23.71 24.4562 23.4272 24.1891 23.4272 23.8597C23.4272 23.5302 23.71 23.2632 24.0588 23.2632ZM29.1114 27.4386H24.0588C23.71 27.4386 23.4272 27.1716 23.4272 26.8421C23.4272 26.5127 23.71 26.2456 24.0588 26.2456H29.1114C29.4602 26.2456 29.743 26.5127 29.743 26.8421C29.743 27.1716 29.4602 27.4386 29.1114 27.4386ZM33.5325 27.4386H31.6377C31.2889 27.4386 31.0062 27.1716 31.0062 26.8421C31.0062 26.5127 31.2889 26.2456 31.6377 26.2456H33.5325C33.8813 26.2456 34.164 26.5127 34.164 26.8421C34.164 27.1716 33.8813 27.4386 33.5325 27.4386ZM33.5325 24.4562H28.4798C28.131 24.4562 27.8483 24.1891 27.8483 23.8597C27.8483 23.5302 28.131 23.2632 28.4798 23.2632H33.5325C33.8813 23.2632 34.164 23.5302 34.164 23.8597C34.164 24.1891 33.8813 24.4562 33.5325 24.4562Z" fill="white"/>
</svg>
