<svg width="51" height="51" viewBox="0 0 51 51" fill="none" xmlns="http://www.w3.org/2000/svg">
<circle cx="25.5" cy="25.5" r="25.5" fill="#7721C1" fill-opacity="0.75"/>
<path d="M37.9244 34.9661C36.4802 36.244 34.3873 37.1606 31.6455 37.7157C28.9037 38.2709 26.0783 38.4333 23.1691 38.2028L17.6437 42.3509V37.1658C15.8228 36.6001 14.3996 35.8669 13.374 34.9661C12.1601 33.8976 11.2183 32.363 10.5486 30.3623C9.87882 28.3616 9.54395 26.319 9.54395 24.2344C9.54395 22.1499 9.87882 20.1073 10.5486 18.1066C11.2183 16.1059 12.1654 14.5661 13.3897 13.4871C14.6141 12.4082 16.367 11.5807 18.6483 11.0046C20.9296 10.4284 23.2632 10.1404 25.6492 10.1404C28.0352 10.1404 30.3688 10.4284 32.6501 11.0046C34.9314 11.5807 36.6843 12.4082 37.9087 13.4871C39.133 14.5661 40.0801 16.1059 40.7499 18.1066C41.4196 20.1073 41.7545 22.1499 41.7545 24.2344C41.7545 26.319 41.4196 28.3616 40.7499 30.3623C40.0801 32.363 39.1383 33.8976 37.9244 34.9661ZM29.6049 27.267L31.6455 27.6126C31.4781 25.0986 30.5101 22.9513 28.7415 21.1705C26.973 19.3898 24.833 18.4156 22.3214 18.248L22.6668 20.2906C24.4667 20.5211 26.0155 21.2857 27.3131 22.5846C28.6107 23.8835 29.3747 25.4443 29.6049 27.267ZM23.0121 22.3961L23.3888 24.6587C24.226 25.0777 24.8434 25.6957 25.2411 26.5128L27.5015 26.8899C27.2503 25.7795 26.7166 24.821 25.9004 24.0145C25.0841 23.2079 24.1214 22.6684 23.0121 22.3961ZM19.6529 24.2502V22.239C19.6529 21.8828 19.5221 21.5267 19.2605 21.1705C18.9989 20.8144 18.7215 20.5577 18.4285 20.4006C18.1355 20.2435 17.9158 20.2278 17.7692 20.3535L16.3251 21.8304C15.5089 22.6475 15.3885 23.9202 15.9641 25.6486C16.5396 27.3769 17.6384 29.0529 19.2605 30.6766C20.8825 32.3002 22.5569 33.4 24.2836 33.9762C26.0102 34.5523 27.2712 34.4318 28.0666 33.6148L29.5421 32.1378C29.6886 32.0121 29.6834 31.7974 29.5264 31.4936C29.3694 31.1898 29.113 30.9122 28.7572 30.6608C28.4014 30.4094 28.0456 30.2837 27.6898 30.2837H25.6806L24.519 31.2893C23.5981 31.0379 22.4522 30.2261 21.0813 28.8539C19.7105 27.4817 18.8994 26.3242 18.6483 25.3815L19.6529 24.2502ZM21.6621 14.1942L21.9761 16.2368C24.069 16.2787 26.005 16.8286 27.784 17.8866C29.563 18.9446 30.9758 20.3587 32.0222 22.129C33.0687 23.8993 33.6234 25.8319 33.6861 27.9269L35.7268 28.2725C35.7268 26.3661 35.3553 24.5435 34.6123 22.8046C33.8693 21.0658 32.8699 19.5679 31.6141 18.3109C30.3583 17.0539 28.8619 16.0535 27.1247 15.3098C25.3876 14.5661 23.5667 14.1942 21.6621 14.1942Z" fill="white"/>
</svg>
