<svg width="51" height="51" viewBox="0 0 51 51" fill="none" xmlns="http://www.w3.org/2000/svg">
<path d="M29.7485 25.058L23.7966 22.2808C23.2772 22.0396 22.8505 22.3099 22.8505 22.885V28.1161C22.8505 28.6912 23.2772 28.9614 23.7966 28.7203L29.7458 25.9431C30.2679 25.6993 30.2679 25.3018 29.7485 25.058ZM25.5005 0.0605469C11.4502 0.0605469 0.0605469 11.4502 0.0605469 25.5005C0.0605469 39.5508 11.4502 50.9406 25.5005 50.9406C39.5508 50.9406 50.9405 39.5508 50.9405 25.5005C50.9405 11.4502 39.5508 0.0605469 25.5005 0.0605469ZM25.5005 35.8355C12.4784 35.8355 12.2505 34.6616 12.2505 25.5005C12.2505 16.3395 12.4784 15.1655 25.5005 15.1655C38.5226 15.1655 38.7505 16.3395 38.7505 25.5005C38.7505 34.6616 38.5226 35.8355 25.5005 35.8355Z" fill="#7721C1" fill-opacity="0.75"/>
</svg>
